M48
; DRILL file {KiCad 7.0.10} date Tue Oct  7 16:07:50 2025
; FORMAT={-:-/ absolute / metric / decimal}
; #@! TF.CreationDate,2025-10-07T16:07:50+01:00
; #@! TF.GenerationSoftware,Kicad,Pcbnew,7.0.10
; #@! TF.FileFunction,Plated,1,2,PTH
FMAT,2
METRIC
; #@! TA.AperFunction,Plated,PTH,ViaDrill
T1C0.400
; #@! TA.AperFunction,Plated,PTH,ComponentDrill
T2C0.700
; #@! TA.AperFunction,Plated,PTH,ComponentDrill
T3C0.800
; #@! TA.AperFunction,Plated,PTH,ComponentDrill
T4C1.000
%
G90
G05
T1
X125.73Y-103.346
X131.799Y-101.306
X136.042Y-102.322
X137.795Y-97.75
X150.495Y-116.165
T2
X113.07Y-79.335
X113.07Y-86.955
X115.57Y-79.335
X115.57Y-86.955
X118.11Y-79.31
X118.11Y-86.93
X120.69Y-79.335
X120.69Y-86.955
X123.23Y-79.335
X123.23Y-86.955
X125.785Y-79.335
X125.785Y-86.955
X128.27Y-79.335
X128.27Y-86.955
X130.81Y-79.335
X130.81Y-86.955
X133.35Y-79.335
X133.35Y-86.955
X135.89Y-79.335
X135.89Y-86.955
X142.875Y-82.51
X142.875Y-90.13
X142.875Y-99.02
X142.875Y-106.64
X145.415Y-82.51
X145.415Y-90.13
X145.415Y-99.02
X145.415Y-106.64
X147.955Y-82.51
X147.955Y-90.13
X147.955Y-99.02
X147.955Y-106.64
X150.495Y-82.51
X150.495Y-90.13
X150.495Y-99.02
X150.495Y-106.64
X153.035Y-82.51
X153.035Y-90.13
X153.035Y-99.02
X153.035Y-106.64
X155.575Y-82.51
X155.575Y-90.13
X155.575Y-99.02
X155.575Y-106.64
X161.9Y-85.025
X161.9Y-92.645
X161.925Y-97.75
X161.925Y-105.37
X161.925Y-109.22
X161.925Y-116.84
X161.925Y-121.92
X161.925Y-129.54
X164.465Y-85.05
X164.465Y-92.67
X164.465Y-97.75
X164.465Y-105.37
X164.465Y-109.22
X164.465Y-116.84
X164.465Y-121.92
X164.465Y-129.54
X178.435Y-85.05
X178.435Y-92.67
X178.435Y-97.75
X178.435Y-105.37
X179.07Y-109.22
X179.07Y-111.76
X179.07Y-114.3
X179.07Y-116.84
X179.07Y-121.92
X179.07Y-124.46
X179.07Y-127.0
X180.975Y-85.05
X180.975Y-92.67
X180.975Y-97.75
X180.975Y-105.37
X183.515Y-97.75
X183.515Y-105.37
X186.055Y-97.75
X186.055Y-105.37
X186.69Y-109.22
X186.69Y-111.76
X186.69Y-114.3
X186.69Y-116.84
X186.69Y-121.92
X186.69Y-124.46
X186.69Y-127.0
T3
X125.095Y-121.88
X125.095Y-129.5
X132.715Y-116.14
X132.715Y-118.64
X137.16Y-118.705
X138.43Y-81.875
X138.43Y-86.875
X144.78Y-118.705
X151.765Y-121.88
X151.765Y-129.5
X156.845Y-126.96
X156.845Y-129.46
X157.48Y-113.625
X157.48Y-116.125
X159.425Y-95.21
X159.425Y-119.38
X164.425Y-95.21
X164.425Y-119.38
X167.64Y-87.59
X167.64Y-90.13
X167.64Y-92.67
X167.64Y-95.21
X167.64Y-97.75
X167.64Y-100.29
X167.64Y-102.83
X167.64Y-111.76
X167.64Y-114.3
X167.64Y-116.84
X167.64Y-119.38
X167.64Y-121.92
X167.64Y-124.46
X167.64Y-127.0
X175.26Y-87.59
X175.26Y-90.13
X175.26Y-92.67
X175.26Y-95.21
X175.26Y-97.75
X175.26Y-100.29
X175.26Y-102.83
X175.26Y-111.76
X175.26Y-114.3
X175.26Y-116.84
X175.26Y-119.38
X175.26Y-121.92
X175.26Y-124.46
X175.26Y-127.0
X178.435Y-95.25
X179.11Y-119.38
X183.435Y-95.25
X184.11Y-119.38
T4
X107.95Y-118.705
X108.001Y-103.557
X108.001Y-106.097
X108.001Y-111.077
X110.49Y-118.705
X110.541Y-111.077
X113.03Y-118.705
X113.07Y-90.13
X113.081Y-111.077
X115.57Y-118.705
X115.61Y-90.13
X115.621Y-96.037
X115.621Y-111.077
X118.11Y-118.705
X118.15Y-90.13
X118.161Y-96.037
X118.161Y-111.077
X120.65Y-118.705
X120.69Y-90.13
X120.701Y-96.037
X120.701Y-111.077
X123.23Y-90.13
X123.241Y-96.037
X123.241Y-111.077
X124.511Y-108.637
X125.77Y-90.13
X125.781Y-96.037
X125.781Y-111.077
X127.051Y-108.637
X128.31Y-90.13
X128.321Y-96.037
X128.321Y-111.077
X130.85Y-90.13
X130.861Y-96.037
X132.08Y-125.055
X132.08Y-127.595
X133.39Y-90.13
X133.401Y-111.077
X134.62Y-125.055
X134.62Y-127.595
X137.16Y-125.055
X137.16Y-127.595
X139.7Y-125.055
X139.7Y-127.595
X142.24Y-125.055
X142.24Y-127.595
X142.875Y-79.335
X142.875Y-93.305
X144.78Y-125.055
X144.78Y-127.595
X145.415Y-79.335
X145.415Y-93.305
X147.955Y-79.335
X147.955Y-93.305
X150.495Y-79.335
X150.495Y-93.305
X153.035Y-79.335
X153.035Y-93.305
X155.575Y-79.335
X155.575Y-93.305
X158.115Y-79.335
X186.69Y-92.03
X186.69Y-94.57
M30
