%TF.GenerationSoftware,KiCad,Pcbnew,7.0.10*%
%TF.CreationDate,2025-10-07T16:07:53+01:00*%
%TF.ProjectId,Eudlidean_Rhythms_R,4575646c-6964-4656-916e-5f5268797468,rev?*%
%TF.SameCoordinates,Original*%
%TF.FileFunction,Drillmap*%
%TF.FilePolarity,Positive*%
%FSLAX45Y45*%
G04 Gerber Fmt 4.5, Leading zero omitted, Abs format (unit mm)*
G04 Created by KiCad (PCBNEW 7.0.10) date 2025-10-07 16:07:53*
%MOMM*%
%LPD*%
G01*
G04 APERTURE LIST*
%ADD10C,0.100000*%
%ADD11C,0.200000*%
G04 APERTURE END LIST*
D10*
X10287000Y-7489000D02*
X19050000Y-7489000D01*
X19050000Y-13140500D01*
X10287000Y-13140500D01*
X10287000Y-7489000D01*
D11*
D10*
X12553000Y-10314572D02*
X12593000Y-10354572D01*
X12593000Y-10314572D02*
X12553000Y-10354572D01*
X13159900Y-10110600D02*
X13199900Y-10150600D01*
X13199900Y-10110600D02*
X13159900Y-10150600D01*
X13584240Y-10212200D02*
X13624240Y-10252200D01*
X13624240Y-10212200D02*
X13584240Y-10252200D01*
X13759500Y-9755000D02*
X13799500Y-9795000D01*
X13799500Y-9755000D02*
X13759500Y-9795000D01*
X15029500Y-11596500D02*
X15069500Y-11636500D01*
X15069500Y-11596500D02*
X15029500Y-11636500D01*
X11342000Y-7933500D02*
G75*
G03*
X11272000Y-7933500I-35000J0D01*
G01*
X11272000Y-7933500D02*
G75*
G03*
X11342000Y-7933500I35000J0D01*
G01*
X11342000Y-8695500D02*
G75*
G03*
X11272000Y-8695500I-35000J0D01*
G01*
X11272000Y-8695500D02*
G75*
G03*
X11342000Y-8695500I35000J0D01*
G01*
X11592000Y-7933500D02*
G75*
G03*
X11522000Y-7933500I-35000J0D01*
G01*
X11522000Y-7933500D02*
G75*
G03*
X11592000Y-7933500I35000J0D01*
G01*
X11592000Y-8695500D02*
G75*
G03*
X11522000Y-8695500I-35000J0D01*
G01*
X11522000Y-8695500D02*
G75*
G03*
X11592000Y-8695500I35000J0D01*
G01*
X11846000Y-7930960D02*
G75*
G03*
X11776000Y-7930960I-35000J0D01*
G01*
X11776000Y-7930960D02*
G75*
G03*
X11846000Y-7930960I35000J0D01*
G01*
X11846000Y-8692960D02*
G75*
G03*
X11776000Y-8692960I-35000J0D01*
G01*
X11776000Y-8692960D02*
G75*
G03*
X11846000Y-8692960I35000J0D01*
G01*
X12104000Y-7933500D02*
G75*
G03*
X12034000Y-7933500I-35000J0D01*
G01*
X12034000Y-7933500D02*
G75*
G03*
X12104000Y-7933500I35000J0D01*
G01*
X12104000Y-8695500D02*
G75*
G03*
X12034000Y-8695500I-35000J0D01*
G01*
X12034000Y-8695500D02*
G75*
G03*
X12104000Y-8695500I35000J0D01*
G01*
X12358000Y-7933500D02*
G75*
G03*
X12288000Y-7933500I-35000J0D01*
G01*
X12288000Y-7933500D02*
G75*
G03*
X12358000Y-7933500I35000J0D01*
G01*
X12358000Y-8695500D02*
G75*
G03*
X12288000Y-8695500I-35000J0D01*
G01*
X12288000Y-8695500D02*
G75*
G03*
X12358000Y-8695500I35000J0D01*
G01*
X12613500Y-7933500D02*
G75*
G03*
X12543500Y-7933500I-35000J0D01*
G01*
X12543500Y-7933500D02*
G75*
G03*
X12613500Y-7933500I35000J0D01*
G01*
X12613500Y-8695500D02*
G75*
G03*
X12543500Y-8695500I-35000J0D01*
G01*
X12543500Y-8695500D02*
G75*
G03*
X12613500Y-8695500I35000J0D01*
G01*
X12862000Y-7933500D02*
G75*
G03*
X12792000Y-7933500I-35000J0D01*
G01*
X12792000Y-7933500D02*
G75*
G03*
X12862000Y-7933500I35000J0D01*
G01*
X12862000Y-8695500D02*
G75*
G03*
X12792000Y-8695500I-35000J0D01*
G01*
X12792000Y-8695500D02*
G75*
G03*
X12862000Y-8695500I35000J0D01*
G01*
X13116000Y-7933500D02*
G75*
G03*
X13046000Y-7933500I-35000J0D01*
G01*
X13046000Y-7933500D02*
G75*
G03*
X13116000Y-7933500I35000J0D01*
G01*
X13116000Y-8695500D02*
G75*
G03*
X13046000Y-8695500I-35000J0D01*
G01*
X13046000Y-8695500D02*
G75*
G03*
X13116000Y-8695500I35000J0D01*
G01*
X13370000Y-7933500D02*
G75*
G03*
X13300000Y-7933500I-35000J0D01*
G01*
X13300000Y-7933500D02*
G75*
G03*
X13370000Y-7933500I35000J0D01*
G01*
X13370000Y-8695500D02*
G75*
G03*
X13300000Y-8695500I-35000J0D01*
G01*
X13300000Y-8695500D02*
G75*
G03*
X13370000Y-8695500I35000J0D01*
G01*
X13624000Y-7933500D02*
G75*
G03*
X13554000Y-7933500I-35000J0D01*
G01*
X13554000Y-7933500D02*
G75*
G03*
X13624000Y-7933500I35000J0D01*
G01*
X13624000Y-8695500D02*
G75*
G03*
X13554000Y-8695500I-35000J0D01*
G01*
X13554000Y-8695500D02*
G75*
G03*
X13624000Y-8695500I35000J0D01*
G01*
X14322500Y-8251000D02*
G75*
G03*
X14252500Y-8251000I-35000J0D01*
G01*
X14252500Y-8251000D02*
G75*
G03*
X14322500Y-8251000I35000J0D01*
G01*
X14322500Y-9013000D02*
G75*
G03*
X14252500Y-9013000I-35000J0D01*
G01*
X14252500Y-9013000D02*
G75*
G03*
X14322500Y-9013000I35000J0D01*
G01*
X14322500Y-9902000D02*
G75*
G03*
X14252500Y-9902000I-35000J0D01*
G01*
X14252500Y-9902000D02*
G75*
G03*
X14322500Y-9902000I35000J0D01*
G01*
X14322500Y-10664000D02*
G75*
G03*
X14252500Y-10664000I-35000J0D01*
G01*
X14252500Y-10664000D02*
G75*
G03*
X14322500Y-10664000I35000J0D01*
G01*
X14576500Y-8251000D02*
G75*
G03*
X14506500Y-8251000I-35000J0D01*
G01*
X14506500Y-8251000D02*
G75*
G03*
X14576500Y-8251000I35000J0D01*
G01*
X14576500Y-9013000D02*
G75*
G03*
X14506500Y-9013000I-35000J0D01*
G01*
X14506500Y-9013000D02*
G75*
G03*
X14576500Y-9013000I35000J0D01*
G01*
X14576500Y-9902000D02*
G75*
G03*
X14506500Y-9902000I-35000J0D01*
G01*
X14506500Y-9902000D02*
G75*
G03*
X14576500Y-9902000I35000J0D01*
G01*
X14576500Y-10664000D02*
G75*
G03*
X14506500Y-10664000I-35000J0D01*
G01*
X14506500Y-10664000D02*
G75*
G03*
X14576500Y-10664000I35000J0D01*
G01*
X14830500Y-8251000D02*
G75*
G03*
X14760500Y-8251000I-35000J0D01*
G01*
X14760500Y-8251000D02*
G75*
G03*
X14830500Y-8251000I35000J0D01*
G01*
X14830500Y-9013000D02*
G75*
G03*
X14760500Y-9013000I-35000J0D01*
G01*
X14760500Y-9013000D02*
G75*
G03*
X14830500Y-9013000I35000J0D01*
G01*
X14830500Y-9902000D02*
G75*
G03*
X14760500Y-9902000I-35000J0D01*
G01*
X14760500Y-9902000D02*
G75*
G03*
X14830500Y-9902000I35000J0D01*
G01*
X14830500Y-10664000D02*
G75*
G03*
X14760500Y-10664000I-35000J0D01*
G01*
X14760500Y-10664000D02*
G75*
G03*
X14830500Y-10664000I35000J0D01*
G01*
X15084500Y-8251000D02*
G75*
G03*
X15014500Y-8251000I-35000J0D01*
G01*
X15014500Y-8251000D02*
G75*
G03*
X15084500Y-8251000I35000J0D01*
G01*
X15084500Y-9013000D02*
G75*
G03*
X15014500Y-9013000I-35000J0D01*
G01*
X15014500Y-9013000D02*
G75*
G03*
X15084500Y-9013000I35000J0D01*
G01*
X15084500Y-9902000D02*
G75*
G03*
X15014500Y-9902000I-35000J0D01*
G01*
X15014500Y-9902000D02*
G75*
G03*
X15084500Y-9902000I35000J0D01*
G01*
X15084500Y-10664000D02*
G75*
G03*
X15014500Y-10664000I-35000J0D01*
G01*
X15014500Y-10664000D02*
G75*
G03*
X15084500Y-10664000I35000J0D01*
G01*
X15338500Y-8251000D02*
G75*
G03*
X15268500Y-8251000I-35000J0D01*
G01*
X15268500Y-8251000D02*
G75*
G03*
X15338500Y-8251000I35000J0D01*
G01*
X15338500Y-9013000D02*
G75*
G03*
X15268500Y-9013000I-35000J0D01*
G01*
X15268500Y-9013000D02*
G75*
G03*
X15338500Y-9013000I35000J0D01*
G01*
X15338500Y-9902000D02*
G75*
G03*
X15268500Y-9902000I-35000J0D01*
G01*
X15268500Y-9902000D02*
G75*
G03*
X15338500Y-9902000I35000J0D01*
G01*
X15338500Y-10664000D02*
G75*
G03*
X15268500Y-10664000I-35000J0D01*
G01*
X15268500Y-10664000D02*
G75*
G03*
X15338500Y-10664000I35000J0D01*
G01*
X15592500Y-8251000D02*
G75*
G03*
X15522500Y-8251000I-35000J0D01*
G01*
X15522500Y-8251000D02*
G75*
G03*
X15592500Y-8251000I35000J0D01*
G01*
X15592500Y-9013000D02*
G75*
G03*
X15522500Y-9013000I-35000J0D01*
G01*
X15522500Y-9013000D02*
G75*
G03*
X15592500Y-9013000I35000J0D01*
G01*
X15592500Y-9902000D02*
G75*
G03*
X15522500Y-9902000I-35000J0D01*
G01*
X15522500Y-9902000D02*
G75*
G03*
X15592500Y-9902000I35000J0D01*
G01*
X15592500Y-10664000D02*
G75*
G03*
X15522500Y-10664000I-35000J0D01*
G01*
X15522500Y-10664000D02*
G75*
G03*
X15592500Y-10664000I35000J0D01*
G01*
X16224960Y-8502460D02*
G75*
G03*
X16154960Y-8502460I-35000J0D01*
G01*
X16154960Y-8502460D02*
G75*
G03*
X16224960Y-8502460I35000J0D01*
G01*
X16224960Y-9264460D02*
G75*
G03*
X16154960Y-9264460I-35000J0D01*
G01*
X16154960Y-9264460D02*
G75*
G03*
X16224960Y-9264460I35000J0D01*
G01*
X16227500Y-9775000D02*
G75*
G03*
X16157500Y-9775000I-35000J0D01*
G01*
X16157500Y-9775000D02*
G75*
G03*
X16227500Y-9775000I35000J0D01*
G01*
X16227500Y-10537000D02*
G75*
G03*
X16157500Y-10537000I-35000J0D01*
G01*
X16157500Y-10537000D02*
G75*
G03*
X16227500Y-10537000I35000J0D01*
G01*
X16227500Y-10922000D02*
G75*
G03*
X16157500Y-10922000I-35000J0D01*
G01*
X16157500Y-10922000D02*
G75*
G03*
X16227500Y-10922000I35000J0D01*
G01*
X16227500Y-11684000D02*
G75*
G03*
X16157500Y-11684000I-35000J0D01*
G01*
X16157500Y-11684000D02*
G75*
G03*
X16227500Y-11684000I35000J0D01*
G01*
X16227500Y-12192000D02*
G75*
G03*
X16157500Y-12192000I-35000J0D01*
G01*
X16157500Y-12192000D02*
G75*
G03*
X16227500Y-12192000I35000J0D01*
G01*
X16227500Y-12954000D02*
G75*
G03*
X16157500Y-12954000I-35000J0D01*
G01*
X16157500Y-12954000D02*
G75*
G03*
X16227500Y-12954000I35000J0D01*
G01*
X16481500Y-8505000D02*
G75*
G03*
X16411500Y-8505000I-35000J0D01*
G01*
X16411500Y-8505000D02*
G75*
G03*
X16481500Y-8505000I35000J0D01*
G01*
X16481500Y-9267000D02*
G75*
G03*
X16411500Y-9267000I-35000J0D01*
G01*
X16411500Y-9267000D02*
G75*
G03*
X16481500Y-9267000I35000J0D01*
G01*
X16481500Y-9775000D02*
G75*
G03*
X16411500Y-9775000I-35000J0D01*
G01*
X16411500Y-9775000D02*
G75*
G03*
X16481500Y-9775000I35000J0D01*
G01*
X16481500Y-10537000D02*
G75*
G03*
X16411500Y-10537000I-35000J0D01*
G01*
X16411500Y-10537000D02*
G75*
G03*
X16481500Y-10537000I35000J0D01*
G01*
X16481500Y-10922000D02*
G75*
G03*
X16411500Y-10922000I-35000J0D01*
G01*
X16411500Y-10922000D02*
G75*
G03*
X16481500Y-10922000I35000J0D01*
G01*
X16481500Y-11684000D02*
G75*
G03*
X16411500Y-11684000I-35000J0D01*
G01*
X16411500Y-11684000D02*
G75*
G03*
X16481500Y-11684000I35000J0D01*
G01*
X16481500Y-12192000D02*
G75*
G03*
X16411500Y-12192000I-35000J0D01*
G01*
X16411500Y-12192000D02*
G75*
G03*
X16481500Y-12192000I35000J0D01*
G01*
X16481500Y-12954000D02*
G75*
G03*
X16411500Y-12954000I-35000J0D01*
G01*
X16411500Y-12954000D02*
G75*
G03*
X16481500Y-12954000I35000J0D01*
G01*
X17878500Y-8505000D02*
G75*
G03*
X17808500Y-8505000I-35000J0D01*
G01*
X17808500Y-8505000D02*
G75*
G03*
X17878500Y-8505000I35000J0D01*
G01*
X17878500Y-9267000D02*
G75*
G03*
X17808500Y-9267000I-35000J0D01*
G01*
X17808500Y-9267000D02*
G75*
G03*
X17878500Y-9267000I35000J0D01*
G01*
X17878500Y-9775000D02*
G75*
G03*
X17808500Y-9775000I-35000J0D01*
G01*
X17808500Y-9775000D02*
G75*
G03*
X17878500Y-9775000I35000J0D01*
G01*
X17878500Y-10537000D02*
G75*
G03*
X17808500Y-10537000I-35000J0D01*
G01*
X17808500Y-10537000D02*
G75*
G03*
X17878500Y-10537000I35000J0D01*
G01*
X17942000Y-10922000D02*
G75*
G03*
X17872000Y-10922000I-35000J0D01*
G01*
X17872000Y-10922000D02*
G75*
G03*
X17942000Y-10922000I35000J0D01*
G01*
X17942000Y-11176000D02*
G75*
G03*
X17872000Y-11176000I-35000J0D01*
G01*
X17872000Y-11176000D02*
G75*
G03*
X17942000Y-11176000I35000J0D01*
G01*
X17942000Y-11430000D02*
G75*
G03*
X17872000Y-11430000I-35000J0D01*
G01*
X17872000Y-11430000D02*
G75*
G03*
X17942000Y-11430000I35000J0D01*
G01*
X17942000Y-11684000D02*
G75*
G03*
X17872000Y-11684000I-35000J0D01*
G01*
X17872000Y-11684000D02*
G75*
G03*
X17942000Y-11684000I35000J0D01*
G01*
X17942000Y-12192000D02*
G75*
G03*
X17872000Y-12192000I-35000J0D01*
G01*
X17872000Y-12192000D02*
G75*
G03*
X17942000Y-12192000I35000J0D01*
G01*
X17942000Y-12446000D02*
G75*
G03*
X17872000Y-12446000I-35000J0D01*
G01*
X17872000Y-12446000D02*
G75*
G03*
X17942000Y-12446000I35000J0D01*
G01*
X17942000Y-12700000D02*
G75*
G03*
X17872000Y-12700000I-35000J0D01*
G01*
X17872000Y-12700000D02*
G75*
G03*
X17942000Y-12700000I35000J0D01*
G01*
X18132500Y-8505000D02*
G75*
G03*
X18062500Y-8505000I-35000J0D01*
G01*
X18062500Y-8505000D02*
G75*
G03*
X18132500Y-8505000I35000J0D01*
G01*
X18132500Y-9267000D02*
G75*
G03*
X18062500Y-9267000I-35000J0D01*
G01*
X18062500Y-9267000D02*
G75*
G03*
X18132500Y-9267000I35000J0D01*
G01*
X18132500Y-9775000D02*
G75*
G03*
X18062500Y-9775000I-35000J0D01*
G01*
X18062500Y-9775000D02*
G75*
G03*
X18132500Y-9775000I35000J0D01*
G01*
X18132500Y-10537000D02*
G75*
G03*
X18062500Y-10537000I-35000J0D01*
G01*
X18062500Y-10537000D02*
G75*
G03*
X18132500Y-10537000I35000J0D01*
G01*
X18386500Y-9775000D02*
G75*
G03*
X18316500Y-9775000I-35000J0D01*
G01*
X18316500Y-9775000D02*
G75*
G03*
X18386500Y-9775000I35000J0D01*
G01*
X18386500Y-10537000D02*
G75*
G03*
X18316500Y-10537000I-35000J0D01*
G01*
X18316500Y-10537000D02*
G75*
G03*
X18386500Y-10537000I35000J0D01*
G01*
X18640500Y-9775000D02*
G75*
G03*
X18570500Y-9775000I-35000J0D01*
G01*
X18570500Y-9775000D02*
G75*
G03*
X18640500Y-9775000I35000J0D01*
G01*
X18640500Y-10537000D02*
G75*
G03*
X18570500Y-10537000I-35000J0D01*
G01*
X18570500Y-10537000D02*
G75*
G03*
X18640500Y-10537000I35000J0D01*
G01*
X18704000Y-10922000D02*
G75*
G03*
X18634000Y-10922000I-35000J0D01*
G01*
X18634000Y-10922000D02*
G75*
G03*
X18704000Y-10922000I35000J0D01*
G01*
X18704000Y-11176000D02*
G75*
G03*
X18634000Y-11176000I-35000J0D01*
G01*
X18634000Y-11176000D02*
G75*
G03*
X18704000Y-11176000I35000J0D01*
G01*
X18704000Y-11430000D02*
G75*
G03*
X18634000Y-11430000I-35000J0D01*
G01*
X18634000Y-11430000D02*
G75*
G03*
X18704000Y-11430000I35000J0D01*
G01*
X18704000Y-11684000D02*
G75*
G03*
X18634000Y-11684000I-35000J0D01*
G01*
X18634000Y-11684000D02*
G75*
G03*
X18704000Y-11684000I35000J0D01*
G01*
X18704000Y-12192000D02*
G75*
G03*
X18634000Y-12192000I-35000J0D01*
G01*
X18634000Y-12192000D02*
G75*
G03*
X18704000Y-12192000I35000J0D01*
G01*
X18704000Y-12446000D02*
G75*
G03*
X18634000Y-12446000I-35000J0D01*
G01*
X18634000Y-12446000D02*
G75*
G03*
X18704000Y-12446000I35000J0D01*
G01*
X18704000Y-12700000D02*
G75*
G03*
X18634000Y-12700000I-35000J0D01*
G01*
X18634000Y-12700000D02*
G75*
G03*
X18704000Y-12700000I35000J0D01*
G01*
X12509500Y-12148000D02*
X12509500Y-12228000D01*
X12469500Y-12188000D02*
X12549500Y-12188000D01*
X12509500Y-12910000D02*
X12509500Y-12990000D01*
X12469500Y-12950000D02*
X12549500Y-12950000D01*
X13271500Y-11574011D02*
X13271500Y-11654011D01*
X13231500Y-11614011D02*
X13311500Y-11614011D01*
X13271500Y-11824011D02*
X13271500Y-11904011D01*
X13231500Y-11864011D02*
X13311500Y-11864011D01*
X13716000Y-11830500D02*
X13716000Y-11910500D01*
X13676000Y-11870500D02*
X13756000Y-11870500D01*
X13843000Y-8147500D02*
X13843000Y-8227500D01*
X13803000Y-8187500D02*
X13883000Y-8187500D01*
X13843000Y-8647500D02*
X13843000Y-8727500D01*
X13803000Y-8687500D02*
X13883000Y-8687500D01*
X14478000Y-11830500D02*
X14478000Y-11910500D01*
X14438000Y-11870500D02*
X14518000Y-11870500D01*
X15176500Y-12148000D02*
X15176500Y-12228000D01*
X15136500Y-12188000D02*
X15216500Y-12188000D01*
X15176500Y-12910000D02*
X15176500Y-12990000D01*
X15136500Y-12950000D02*
X15216500Y-12950000D01*
X15684500Y-12656000D02*
X15684500Y-12736000D01*
X15644500Y-12696000D02*
X15724500Y-12696000D01*
X15684500Y-12906000D02*
X15684500Y-12986000D01*
X15644500Y-12946000D02*
X15724500Y-12946000D01*
X15748000Y-11322500D02*
X15748000Y-11402500D01*
X15708000Y-11362500D02*
X15788000Y-11362500D01*
X15748000Y-11572500D02*
X15748000Y-11652500D01*
X15708000Y-11612500D02*
X15788000Y-11612500D01*
X15942500Y-9481000D02*
X15942500Y-9561000D01*
X15902500Y-9521000D02*
X15982500Y-9521000D01*
X15942500Y-11898000D02*
X15942500Y-11978000D01*
X15902500Y-11938000D02*
X15982500Y-11938000D01*
X16442500Y-9481000D02*
X16442500Y-9561000D01*
X16402500Y-9521000D02*
X16482500Y-9521000D01*
X16442500Y-11898000D02*
X16442500Y-11978000D01*
X16402500Y-11938000D02*
X16482500Y-11938000D01*
X16764000Y-8719000D02*
X16764000Y-8799000D01*
X16724000Y-8759000D02*
X16804000Y-8759000D01*
X16764000Y-8973000D02*
X16764000Y-9053000D01*
X16724000Y-9013000D02*
X16804000Y-9013000D01*
X16764000Y-9227000D02*
X16764000Y-9307000D01*
X16724000Y-9267000D02*
X16804000Y-9267000D01*
X16764000Y-9481000D02*
X16764000Y-9561000D01*
X16724000Y-9521000D02*
X16804000Y-9521000D01*
X16764000Y-9735000D02*
X16764000Y-9815000D01*
X16724000Y-9775000D02*
X16804000Y-9775000D01*
X16764000Y-9989000D02*
X16764000Y-10069000D01*
X16724000Y-10029000D02*
X16804000Y-10029000D01*
X16764000Y-10243000D02*
X16764000Y-10323000D01*
X16724000Y-10283000D02*
X16804000Y-10283000D01*
X16764000Y-11136000D02*
X16764000Y-11216000D01*
X16724000Y-11176000D02*
X16804000Y-11176000D01*
X16764000Y-11390000D02*
X16764000Y-11470000D01*
X16724000Y-11430000D02*
X16804000Y-11430000D01*
X16764000Y-11644000D02*
X16764000Y-11724000D01*
X16724000Y-11684000D02*
X16804000Y-11684000D01*
X16764000Y-11898000D02*
X16764000Y-11978000D01*
X16724000Y-11938000D02*
X16804000Y-11938000D01*
X16764000Y-12152000D02*
X16764000Y-12232000D01*
X16724000Y-12192000D02*
X16804000Y-12192000D01*
X16764000Y-12406000D02*
X16764000Y-12486000D01*
X16724000Y-12446000D02*
X16804000Y-12446000D01*
X16764000Y-12660000D02*
X16764000Y-12740000D01*
X16724000Y-12700000D02*
X16804000Y-12700000D01*
X17526000Y-8719000D02*
X17526000Y-8799000D01*
X17486000Y-8759000D02*
X17566000Y-8759000D01*
X17526000Y-8973000D02*
X17526000Y-9053000D01*
X17486000Y-9013000D02*
X17566000Y-9013000D01*
X17526000Y-9227000D02*
X17526000Y-9307000D01*
X17486000Y-9267000D02*
X17566000Y-9267000D01*
X17526000Y-9481000D02*
X17526000Y-9561000D01*
X17486000Y-9521000D02*
X17566000Y-9521000D01*
X17526000Y-9735000D02*
X17526000Y-9815000D01*
X17486000Y-9775000D02*
X17566000Y-9775000D01*
X17526000Y-9989000D02*
X17526000Y-10069000D01*
X17486000Y-10029000D02*
X17566000Y-10029000D01*
X17526000Y-10243000D02*
X17526000Y-10323000D01*
X17486000Y-10283000D02*
X17566000Y-10283000D01*
X17526000Y-11136000D02*
X17526000Y-11216000D01*
X17486000Y-11176000D02*
X17566000Y-11176000D01*
X17526000Y-11390000D02*
X17526000Y-11470000D01*
X17486000Y-11430000D02*
X17566000Y-11430000D01*
X17526000Y-11644000D02*
X17526000Y-11724000D01*
X17486000Y-11684000D02*
X17566000Y-11684000D01*
X17526000Y-11898000D02*
X17526000Y-11978000D01*
X17486000Y-11938000D02*
X17566000Y-11938000D01*
X17526000Y-12152000D02*
X17526000Y-12232000D01*
X17486000Y-12192000D02*
X17566000Y-12192000D01*
X17526000Y-12406000D02*
X17526000Y-12486000D01*
X17486000Y-12446000D02*
X17566000Y-12446000D01*
X17526000Y-12660000D02*
X17526000Y-12740000D01*
X17486000Y-12700000D02*
X17566000Y-12700000D01*
X17843500Y-9485000D02*
X17843500Y-9565000D01*
X17803500Y-9525000D02*
X17883500Y-9525000D01*
X17911000Y-11898000D02*
X17911000Y-11978000D01*
X17871000Y-11938000D02*
X17951000Y-11938000D01*
X18343500Y-9485000D02*
X18343500Y-9565000D01*
X18303500Y-9525000D02*
X18383500Y-9525000D01*
X18411000Y-11898000D02*
X18411000Y-11978000D01*
X18371000Y-11938000D02*
X18451000Y-11938000D01*
X10830356Y-11905856D02*
X10830356Y-11835144D01*
X10759644Y-11835144D01*
X10759644Y-11905856D01*
X10830356Y-11905856D01*
X10835436Y-10391096D02*
X10835436Y-10320384D01*
X10764724Y-10320384D01*
X10764724Y-10391096D01*
X10835436Y-10391096D01*
X10835436Y-10645096D02*
X10835436Y-10574384D01*
X10764724Y-10574384D01*
X10764724Y-10645096D01*
X10835436Y-10645096D01*
X10835436Y-11143096D02*
X10835436Y-11072384D01*
X10764724Y-11072384D01*
X10764724Y-11143096D01*
X10835436Y-11143096D01*
X11084356Y-11905856D02*
X11084356Y-11835144D01*
X11013644Y-11835144D01*
X11013644Y-11905856D01*
X11084356Y-11905856D01*
X11089436Y-11143096D02*
X11089436Y-11072384D01*
X11018724Y-11072384D01*
X11018724Y-11143096D01*
X11089436Y-11143096D01*
X11338356Y-11905856D02*
X11338356Y-11835144D01*
X11267644Y-11835144D01*
X11267644Y-11905856D01*
X11338356Y-11905856D01*
X11342356Y-9048356D02*
X11342356Y-8977644D01*
X11271644Y-8977644D01*
X11271644Y-9048356D01*
X11342356Y-9048356D01*
X11343436Y-11143096D02*
X11343436Y-11072384D01*
X11272724Y-11072384D01*
X11272724Y-11143096D01*
X11343436Y-11143096D01*
X11592356Y-11905856D02*
X11592356Y-11835144D01*
X11521644Y-11835144D01*
X11521644Y-11905856D01*
X11592356Y-11905856D01*
X11596356Y-9048356D02*
X11596356Y-8977644D01*
X11525644Y-8977644D01*
X11525644Y-9048356D01*
X11596356Y-9048356D01*
X11597436Y-9639096D02*
X11597436Y-9568384D01*
X11526724Y-9568384D01*
X11526724Y-9639096D01*
X11597436Y-9639096D01*
X11597436Y-11143096D02*
X11597436Y-11072384D01*
X11526724Y-11072384D01*
X11526724Y-11143096D01*
X11597436Y-11143096D01*
X11846356Y-11905856D02*
X11846356Y-11835144D01*
X11775644Y-11835144D01*
X11775644Y-11905856D01*
X11846356Y-11905856D01*
X11850356Y-9048356D02*
X11850356Y-8977644D01*
X11779644Y-8977644D01*
X11779644Y-9048356D01*
X11850356Y-9048356D01*
X11851436Y-9639096D02*
X11851436Y-9568384D01*
X11780724Y-9568384D01*
X11780724Y-9639096D01*
X11851436Y-9639096D01*
X11851436Y-11143096D02*
X11851436Y-11072384D01*
X11780724Y-11072384D01*
X11780724Y-11143096D01*
X11851436Y-11143096D01*
X12100356Y-11905856D02*
X12100356Y-11835144D01*
X12029644Y-11835144D01*
X12029644Y-11905856D01*
X12100356Y-11905856D01*
X12104356Y-9048356D02*
X12104356Y-8977644D01*
X12033644Y-8977644D01*
X12033644Y-9048356D01*
X12104356Y-9048356D01*
X12105436Y-9639096D02*
X12105436Y-9568384D01*
X12034724Y-9568384D01*
X12034724Y-9639096D01*
X12105436Y-9639096D01*
X12105436Y-11143096D02*
X12105436Y-11072384D01*
X12034724Y-11072384D01*
X12034724Y-11143096D01*
X12105436Y-11143096D01*
X12358356Y-9048356D02*
X12358356Y-8977644D01*
X12287644Y-8977644D01*
X12287644Y-9048356D01*
X12358356Y-9048356D01*
X12359436Y-9639096D02*
X12359436Y-9568384D01*
X12288724Y-9568384D01*
X12288724Y-9639096D01*
X12359436Y-9639096D01*
X12359436Y-11143096D02*
X12359436Y-11072384D01*
X12288724Y-11072384D01*
X12288724Y-11143096D01*
X12359436Y-11143096D01*
X12486436Y-10899096D02*
X12486436Y-10828384D01*
X12415724Y-10828384D01*
X12415724Y-10899096D01*
X12486436Y-10899096D01*
X12612356Y-9048356D02*
X12612356Y-8977644D01*
X12541644Y-8977644D01*
X12541644Y-9048356D01*
X12612356Y-9048356D01*
X12613436Y-9639096D02*
X12613436Y-9568384D01*
X12542724Y-9568384D01*
X12542724Y-9639096D01*
X12613436Y-9639096D01*
X12613436Y-11143096D02*
X12613436Y-11072384D01*
X12542724Y-11072384D01*
X12542724Y-11143096D01*
X12613436Y-11143096D01*
X12740436Y-10899096D02*
X12740436Y-10828384D01*
X12669724Y-10828384D01*
X12669724Y-10899096D01*
X12740436Y-10899096D01*
X12866356Y-9048356D02*
X12866356Y-8977644D01*
X12795644Y-8977644D01*
X12795644Y-9048356D01*
X12866356Y-9048356D01*
X12867436Y-9639096D02*
X12867436Y-9568384D01*
X12796724Y-9568384D01*
X12796724Y-9639096D01*
X12867436Y-9639096D01*
X12867436Y-11143096D02*
X12867436Y-11072384D01*
X12796724Y-11072384D01*
X12796724Y-11143096D01*
X12867436Y-11143096D01*
X13120356Y-9048356D02*
X13120356Y-8977644D01*
X13049644Y-8977644D01*
X13049644Y-9048356D01*
X13120356Y-9048356D01*
X13121436Y-9639096D02*
X13121436Y-9568384D01*
X13050724Y-9568384D01*
X13050724Y-9639096D01*
X13121436Y-9639096D01*
X13243356Y-12540856D02*
X13243356Y-12470144D01*
X13172644Y-12470144D01*
X13172644Y-12540856D01*
X13243356Y-12540856D01*
X13243356Y-12794856D02*
X13243356Y-12724144D01*
X13172644Y-12724144D01*
X13172644Y-12794856D01*
X13243356Y-12794856D01*
X13374356Y-9048356D02*
X13374356Y-8977644D01*
X13303644Y-8977644D01*
X13303644Y-9048356D01*
X13374356Y-9048356D01*
X13375436Y-11143096D02*
X13375436Y-11072384D01*
X13304724Y-11072384D01*
X13304724Y-11143096D01*
X13375436Y-11143096D01*
X13497356Y-12540856D02*
X13497356Y-12470144D01*
X13426644Y-12470144D01*
X13426644Y-12540856D01*
X13497356Y-12540856D01*
X13497356Y-12794856D02*
X13497356Y-12724144D01*
X13426644Y-12724144D01*
X13426644Y-12794856D01*
X13497356Y-12794856D01*
X13751356Y-12540856D02*
X13751356Y-12470144D01*
X13680644Y-12470144D01*
X13680644Y-12540856D01*
X13751356Y-12540856D01*
X13751356Y-12794856D02*
X13751356Y-12724144D01*
X13680644Y-12724144D01*
X13680644Y-12794856D01*
X13751356Y-12794856D01*
X14005356Y-12540856D02*
X14005356Y-12470144D01*
X13934644Y-12470144D01*
X13934644Y-12540856D01*
X14005356Y-12540856D01*
X14005356Y-12794856D02*
X14005356Y-12724144D01*
X13934644Y-12724144D01*
X13934644Y-12794856D01*
X14005356Y-12794856D01*
X14259356Y-12540856D02*
X14259356Y-12470144D01*
X14188644Y-12470144D01*
X14188644Y-12540856D01*
X14259356Y-12540856D01*
X14259356Y-12794856D02*
X14259356Y-12724144D01*
X14188644Y-12724144D01*
X14188644Y-12794856D01*
X14259356Y-12794856D01*
X14322856Y-7968856D02*
X14322856Y-7898144D01*
X14252144Y-7898144D01*
X14252144Y-7968856D01*
X14322856Y-7968856D01*
X14322856Y-9365856D02*
X14322856Y-9295144D01*
X14252144Y-9295144D01*
X14252144Y-9365856D01*
X14322856Y-9365856D01*
X14513356Y-12540856D02*
X14513356Y-12470144D01*
X14442644Y-12470144D01*
X14442644Y-12540856D01*
X14513356Y-12540856D01*
X14513356Y-12794856D02*
X14513356Y-12724144D01*
X14442644Y-12724144D01*
X14442644Y-12794856D01*
X14513356Y-12794856D01*
X14576856Y-7968856D02*
X14576856Y-7898144D01*
X14506144Y-7898144D01*
X14506144Y-7968856D01*
X14576856Y-7968856D01*
X14576856Y-9365856D02*
X14576856Y-9295144D01*
X14506144Y-9295144D01*
X14506144Y-9365856D01*
X14576856Y-9365856D01*
X14830856Y-7968856D02*
X14830856Y-7898144D01*
X14760144Y-7898144D01*
X14760144Y-7968856D01*
X14830856Y-7968856D01*
X14830856Y-9365856D02*
X14830856Y-9295144D01*
X14760144Y-9295144D01*
X14760144Y-9365856D01*
X14830856Y-9365856D01*
X15084856Y-7968856D02*
X15084856Y-7898144D01*
X15014144Y-7898144D01*
X15014144Y-7968856D01*
X15084856Y-7968856D01*
X15084856Y-9365856D02*
X15084856Y-9295144D01*
X15014144Y-9295144D01*
X15014144Y-9365856D01*
X15084856Y-9365856D01*
X15338856Y-7968856D02*
X15338856Y-7898144D01*
X15268144Y-7898144D01*
X15268144Y-7968856D01*
X15338856Y-7968856D01*
X15338856Y-9365856D02*
X15338856Y-9295144D01*
X15268144Y-9295144D01*
X15268144Y-9365856D01*
X15338856Y-9365856D01*
X15592856Y-7968856D02*
X15592856Y-7898144D01*
X15522144Y-7898144D01*
X15522144Y-7968856D01*
X15592856Y-7968856D01*
X15592856Y-9365856D02*
X15592856Y-9295144D01*
X15522144Y-9295144D01*
X15522144Y-9365856D01*
X15592856Y-9365856D01*
X15846856Y-7968856D02*
X15846856Y-7898144D01*
X15776144Y-7898144D01*
X15776144Y-7968856D01*
X15846856Y-7968856D01*
X18704356Y-9238356D02*
X18704356Y-9167644D01*
X18633644Y-9167644D01*
X18633644Y-9238356D01*
X18704356Y-9238356D01*
X18704356Y-9492356D02*
X18704356Y-9421644D01*
X18633644Y-9421644D01*
X18633644Y-9492356D01*
X18704356Y-9492356D01*
D11*
X10542777Y-13456984D02*
X10542777Y-13256984D01*
X10542777Y-13256984D02*
X10590396Y-13256984D01*
X10590396Y-13256984D02*
X10618967Y-13266508D01*
X10618967Y-13266508D02*
X10638015Y-13285555D01*
X10638015Y-13285555D02*
X10647539Y-13304603D01*
X10647539Y-13304603D02*
X10657063Y-13342698D01*
X10657063Y-13342698D02*
X10657063Y-13371269D01*
X10657063Y-13371269D02*
X10647539Y-13409365D01*
X10647539Y-13409365D02*
X10638015Y-13428412D01*
X10638015Y-13428412D02*
X10618967Y-13447460D01*
X10618967Y-13447460D02*
X10590396Y-13456984D01*
X10590396Y-13456984D02*
X10542777Y-13456984D01*
X10742777Y-13456984D02*
X10742777Y-13323650D01*
X10742777Y-13361746D02*
X10752301Y-13342698D01*
X10752301Y-13342698D02*
X10761824Y-13333174D01*
X10761824Y-13333174D02*
X10780872Y-13323650D01*
X10780872Y-13323650D02*
X10799920Y-13323650D01*
X10866586Y-13456984D02*
X10866586Y-13323650D01*
X10866586Y-13256984D02*
X10857063Y-13266508D01*
X10857063Y-13266508D02*
X10866586Y-13276031D01*
X10866586Y-13276031D02*
X10876110Y-13266508D01*
X10876110Y-13266508D02*
X10866586Y-13256984D01*
X10866586Y-13256984D02*
X10866586Y-13276031D01*
X10990396Y-13456984D02*
X10971348Y-13447460D01*
X10971348Y-13447460D02*
X10961824Y-13428412D01*
X10961824Y-13428412D02*
X10961824Y-13256984D01*
X11095158Y-13456984D02*
X11076110Y-13447460D01*
X11076110Y-13447460D02*
X11066586Y-13428412D01*
X11066586Y-13428412D02*
X11066586Y-13256984D01*
X11323729Y-13456984D02*
X11323729Y-13256984D01*
X11323729Y-13256984D02*
X11390396Y-13399841D01*
X11390396Y-13399841D02*
X11457062Y-13256984D01*
X11457062Y-13256984D02*
X11457062Y-13456984D01*
X11638015Y-13456984D02*
X11638015Y-13352222D01*
X11638015Y-13352222D02*
X11628491Y-13333174D01*
X11628491Y-13333174D02*
X11609443Y-13323650D01*
X11609443Y-13323650D02*
X11571348Y-13323650D01*
X11571348Y-13323650D02*
X11552301Y-13333174D01*
X11638015Y-13447460D02*
X11618967Y-13456984D01*
X11618967Y-13456984D02*
X11571348Y-13456984D01*
X11571348Y-13456984D02*
X11552301Y-13447460D01*
X11552301Y-13447460D02*
X11542777Y-13428412D01*
X11542777Y-13428412D02*
X11542777Y-13409365D01*
X11542777Y-13409365D02*
X11552301Y-13390317D01*
X11552301Y-13390317D02*
X11571348Y-13380793D01*
X11571348Y-13380793D02*
X11618967Y-13380793D01*
X11618967Y-13380793D02*
X11638015Y-13371269D01*
X11733253Y-13323650D02*
X11733253Y-13523650D01*
X11733253Y-13333174D02*
X11752301Y-13323650D01*
X11752301Y-13323650D02*
X11790396Y-13323650D01*
X11790396Y-13323650D02*
X11809443Y-13333174D01*
X11809443Y-13333174D02*
X11818967Y-13342698D01*
X11818967Y-13342698D02*
X11828491Y-13361746D01*
X11828491Y-13361746D02*
X11828491Y-13418888D01*
X11828491Y-13418888D02*
X11818967Y-13437936D01*
X11818967Y-13437936D02*
X11809443Y-13447460D01*
X11809443Y-13447460D02*
X11790396Y-13456984D01*
X11790396Y-13456984D02*
X11752301Y-13456984D01*
X11752301Y-13456984D02*
X11733253Y-13447460D01*
X11914205Y-13437936D02*
X11923729Y-13447460D01*
X11923729Y-13447460D02*
X11914205Y-13456984D01*
X11914205Y-13456984D02*
X11904682Y-13447460D01*
X11904682Y-13447460D02*
X11914205Y-13437936D01*
X11914205Y-13437936D02*
X11914205Y-13456984D01*
X11914205Y-13333174D02*
X11923729Y-13342698D01*
X11923729Y-13342698D02*
X11914205Y-13352222D01*
X11914205Y-13352222D02*
X11904682Y-13342698D01*
X11904682Y-13342698D02*
X11914205Y-13333174D01*
X11914205Y-13333174D02*
X11914205Y-13352222D01*
D10*
X10242000Y-13765500D02*
X10282000Y-13805500D01*
X10282000Y-13765500D02*
X10242000Y-13805500D01*
D11*
X10580872Y-13676984D02*
X10599920Y-13676984D01*
X10599920Y-13676984D02*
X10618967Y-13686508D01*
X10618967Y-13686508D02*
X10628491Y-13696031D01*
X10628491Y-13696031D02*
X10638015Y-13715079D01*
X10638015Y-13715079D02*
X10647539Y-13753174D01*
X10647539Y-13753174D02*
X10647539Y-13800793D01*
X10647539Y-13800793D02*
X10638015Y-13838888D01*
X10638015Y-13838888D02*
X10628491Y-13857936D01*
X10628491Y-13857936D02*
X10618967Y-13867460D01*
X10618967Y-13867460D02*
X10599920Y-13876984D01*
X10599920Y-13876984D02*
X10580872Y-13876984D01*
X10580872Y-13876984D02*
X10561824Y-13867460D01*
X10561824Y-13867460D02*
X10552301Y-13857936D01*
X10552301Y-13857936D02*
X10542777Y-13838888D01*
X10542777Y-13838888D02*
X10533253Y-13800793D01*
X10533253Y-13800793D02*
X10533253Y-13753174D01*
X10533253Y-13753174D02*
X10542777Y-13715079D01*
X10542777Y-13715079D02*
X10552301Y-13696031D01*
X10552301Y-13696031D02*
X10561824Y-13686508D01*
X10561824Y-13686508D02*
X10580872Y-13676984D01*
X10733253Y-13857936D02*
X10742777Y-13867460D01*
X10742777Y-13867460D02*
X10733253Y-13876984D01*
X10733253Y-13876984D02*
X10723729Y-13867460D01*
X10723729Y-13867460D02*
X10733253Y-13857936D01*
X10733253Y-13857936D02*
X10733253Y-13876984D01*
X10914205Y-13743650D02*
X10914205Y-13876984D01*
X10866586Y-13667460D02*
X10818967Y-13810317D01*
X10818967Y-13810317D02*
X10942777Y-13810317D01*
X11057063Y-13676984D02*
X11076110Y-13676984D01*
X11076110Y-13676984D02*
X11095158Y-13686508D01*
X11095158Y-13686508D02*
X11104682Y-13696031D01*
X11104682Y-13696031D02*
X11114205Y-13715079D01*
X11114205Y-13715079D02*
X11123729Y-13753174D01*
X11123729Y-13753174D02*
X11123729Y-13800793D01*
X11123729Y-13800793D02*
X11114205Y-13838888D01*
X11114205Y-13838888D02*
X11104682Y-13857936D01*
X11104682Y-13857936D02*
X11095158Y-13867460D01*
X11095158Y-13867460D02*
X11076110Y-13876984D01*
X11076110Y-13876984D02*
X11057063Y-13876984D01*
X11057063Y-13876984D02*
X11038015Y-13867460D01*
X11038015Y-13867460D02*
X11028491Y-13857936D01*
X11028491Y-13857936D02*
X11018967Y-13838888D01*
X11018967Y-13838888D02*
X11009444Y-13800793D01*
X11009444Y-13800793D02*
X11009444Y-13753174D01*
X11009444Y-13753174D02*
X11018967Y-13715079D01*
X11018967Y-13715079D02*
X11028491Y-13696031D01*
X11028491Y-13696031D02*
X11038015Y-13686508D01*
X11038015Y-13686508D02*
X11057063Y-13676984D01*
X11247539Y-13676984D02*
X11266586Y-13676984D01*
X11266586Y-13676984D02*
X11285634Y-13686508D01*
X11285634Y-13686508D02*
X11295158Y-13696031D01*
X11295158Y-13696031D02*
X11304682Y-13715079D01*
X11304682Y-13715079D02*
X11314205Y-13753174D01*
X11314205Y-13753174D02*
X11314205Y-13800793D01*
X11314205Y-13800793D02*
X11304682Y-13838888D01*
X11304682Y-13838888D02*
X11295158Y-13857936D01*
X11295158Y-13857936D02*
X11285634Y-13867460D01*
X11285634Y-13867460D02*
X11266586Y-13876984D01*
X11266586Y-13876984D02*
X11247539Y-13876984D01*
X11247539Y-13876984D02*
X11228491Y-13867460D01*
X11228491Y-13867460D02*
X11218967Y-13857936D01*
X11218967Y-13857936D02*
X11209443Y-13838888D01*
X11209443Y-13838888D02*
X11199920Y-13800793D01*
X11199920Y-13800793D02*
X11199920Y-13753174D01*
X11199920Y-13753174D02*
X11209443Y-13715079D01*
X11209443Y-13715079D02*
X11218967Y-13696031D01*
X11218967Y-13696031D02*
X11228491Y-13686508D01*
X11228491Y-13686508D02*
X11247539Y-13676984D01*
X11399920Y-13876984D02*
X11399920Y-13743650D01*
X11399920Y-13762698D02*
X11409443Y-13753174D01*
X11409443Y-13753174D02*
X11428491Y-13743650D01*
X11428491Y-13743650D02*
X11457063Y-13743650D01*
X11457063Y-13743650D02*
X11476110Y-13753174D01*
X11476110Y-13753174D02*
X11485634Y-13772222D01*
X11485634Y-13772222D02*
X11485634Y-13876984D01*
X11485634Y-13772222D02*
X11495158Y-13753174D01*
X11495158Y-13753174D02*
X11514205Y-13743650D01*
X11514205Y-13743650D02*
X11542777Y-13743650D01*
X11542777Y-13743650D02*
X11561824Y-13753174D01*
X11561824Y-13753174D02*
X11571348Y-13772222D01*
X11571348Y-13772222D02*
X11571348Y-13876984D01*
X11666586Y-13876984D02*
X11666586Y-13743650D01*
X11666586Y-13762698D02*
X11676110Y-13753174D01*
X11676110Y-13753174D02*
X11695158Y-13743650D01*
X11695158Y-13743650D02*
X11723729Y-13743650D01*
X11723729Y-13743650D02*
X11742777Y-13753174D01*
X11742777Y-13753174D02*
X11752301Y-13772222D01*
X11752301Y-13772222D02*
X11752301Y-13876984D01*
X11752301Y-13772222D02*
X11761824Y-13753174D01*
X11761824Y-13753174D02*
X11780872Y-13743650D01*
X11780872Y-13743650D02*
X11809443Y-13743650D01*
X11809443Y-13743650D02*
X11828491Y-13753174D01*
X11828491Y-13753174D02*
X11838015Y-13772222D01*
X11838015Y-13772222D02*
X11838015Y-13876984D01*
X12228491Y-13667460D02*
X12057063Y-13924603D01*
X12485634Y-13676984D02*
X12504682Y-13676984D01*
X12504682Y-13676984D02*
X12523729Y-13686508D01*
X12523729Y-13686508D02*
X12533253Y-13696031D01*
X12533253Y-13696031D02*
X12542777Y-13715079D01*
X12542777Y-13715079D02*
X12552301Y-13753174D01*
X12552301Y-13753174D02*
X12552301Y-13800793D01*
X12552301Y-13800793D02*
X12542777Y-13838888D01*
X12542777Y-13838888D02*
X12533253Y-13857936D01*
X12533253Y-13857936D02*
X12523729Y-13867460D01*
X12523729Y-13867460D02*
X12504682Y-13876984D01*
X12504682Y-13876984D02*
X12485634Y-13876984D01*
X12485634Y-13876984D02*
X12466586Y-13867460D01*
X12466586Y-13867460D02*
X12457063Y-13857936D01*
X12457063Y-13857936D02*
X12447539Y-13838888D01*
X12447539Y-13838888D02*
X12438015Y-13800793D01*
X12438015Y-13800793D02*
X12438015Y-13753174D01*
X12438015Y-13753174D02*
X12447539Y-13715079D01*
X12447539Y-13715079D02*
X12457063Y-13696031D01*
X12457063Y-13696031D02*
X12466586Y-13686508D01*
X12466586Y-13686508D02*
X12485634Y-13676984D01*
X12638015Y-13857936D02*
X12647539Y-13867460D01*
X12647539Y-13867460D02*
X12638015Y-13876984D01*
X12638015Y-13876984D02*
X12628491Y-13867460D01*
X12628491Y-13867460D02*
X12638015Y-13857936D01*
X12638015Y-13857936D02*
X12638015Y-13876984D01*
X12771348Y-13676984D02*
X12790396Y-13676984D01*
X12790396Y-13676984D02*
X12809444Y-13686508D01*
X12809444Y-13686508D02*
X12818967Y-13696031D01*
X12818967Y-13696031D02*
X12828491Y-13715079D01*
X12828491Y-13715079D02*
X12838015Y-13753174D01*
X12838015Y-13753174D02*
X12838015Y-13800793D01*
X12838015Y-13800793D02*
X12828491Y-13838888D01*
X12828491Y-13838888D02*
X12818967Y-13857936D01*
X12818967Y-13857936D02*
X12809444Y-13867460D01*
X12809444Y-13867460D02*
X12790396Y-13876984D01*
X12790396Y-13876984D02*
X12771348Y-13876984D01*
X12771348Y-13876984D02*
X12752301Y-13867460D01*
X12752301Y-13867460D02*
X12742777Y-13857936D01*
X12742777Y-13857936D02*
X12733253Y-13838888D01*
X12733253Y-13838888D02*
X12723729Y-13800793D01*
X12723729Y-13800793D02*
X12723729Y-13753174D01*
X12723729Y-13753174D02*
X12733253Y-13715079D01*
X12733253Y-13715079D02*
X12742777Y-13696031D01*
X12742777Y-13696031D02*
X12752301Y-13686508D01*
X12752301Y-13686508D02*
X12771348Y-13676984D01*
X13028491Y-13876984D02*
X12914206Y-13876984D01*
X12971348Y-13876984D02*
X12971348Y-13676984D01*
X12971348Y-13676984D02*
X12952301Y-13705555D01*
X12952301Y-13705555D02*
X12933253Y-13724603D01*
X12933253Y-13724603D02*
X12914206Y-13734127D01*
X13209444Y-13676984D02*
X13114206Y-13676984D01*
X13114206Y-13676984D02*
X13104682Y-13772222D01*
X13104682Y-13772222D02*
X13114206Y-13762698D01*
X13114206Y-13762698D02*
X13133253Y-13753174D01*
X13133253Y-13753174D02*
X13180872Y-13753174D01*
X13180872Y-13753174D02*
X13199920Y-13762698D01*
X13199920Y-13762698D02*
X13209444Y-13772222D01*
X13209444Y-13772222D02*
X13218967Y-13791269D01*
X13218967Y-13791269D02*
X13218967Y-13838888D01*
X13218967Y-13838888D02*
X13209444Y-13857936D01*
X13209444Y-13857936D02*
X13199920Y-13867460D01*
X13199920Y-13867460D02*
X13180872Y-13876984D01*
X13180872Y-13876984D02*
X13133253Y-13876984D01*
X13133253Y-13876984D02*
X13114206Y-13867460D01*
X13114206Y-13867460D02*
X13104682Y-13857936D01*
X13285634Y-13676984D02*
X13418967Y-13676984D01*
X13418967Y-13676984D02*
X13333253Y-13876984D01*
X13485634Y-13676984D02*
X13485634Y-13715079D01*
X13561825Y-13676984D02*
X13561825Y-13715079D01*
X13857063Y-13953174D02*
X13847539Y-13943650D01*
X13847539Y-13943650D02*
X13828491Y-13915079D01*
X13828491Y-13915079D02*
X13818968Y-13896031D01*
X13818968Y-13896031D02*
X13809444Y-13867460D01*
X13809444Y-13867460D02*
X13799920Y-13819841D01*
X13799920Y-13819841D02*
X13799920Y-13781746D01*
X13799920Y-13781746D02*
X13809444Y-13734127D01*
X13809444Y-13734127D02*
X13818968Y-13705555D01*
X13818968Y-13705555D02*
X13828491Y-13686508D01*
X13828491Y-13686508D02*
X13847539Y-13657936D01*
X13847539Y-13657936D02*
X13857063Y-13648412D01*
X14028491Y-13676984D02*
X13933253Y-13676984D01*
X13933253Y-13676984D02*
X13923729Y-13772222D01*
X13923729Y-13772222D02*
X13933253Y-13762698D01*
X13933253Y-13762698D02*
X13952301Y-13753174D01*
X13952301Y-13753174D02*
X13999920Y-13753174D01*
X13999920Y-13753174D02*
X14018968Y-13762698D01*
X14018968Y-13762698D02*
X14028491Y-13772222D01*
X14028491Y-13772222D02*
X14038015Y-13791269D01*
X14038015Y-13791269D02*
X14038015Y-13838888D01*
X14038015Y-13838888D02*
X14028491Y-13857936D01*
X14028491Y-13857936D02*
X14018968Y-13867460D01*
X14018968Y-13867460D02*
X13999920Y-13876984D01*
X13999920Y-13876984D02*
X13952301Y-13876984D01*
X13952301Y-13876984D02*
X13933253Y-13867460D01*
X13933253Y-13867460D02*
X13923729Y-13857936D01*
X14276110Y-13876984D02*
X14276110Y-13676984D01*
X14361825Y-13876984D02*
X14361825Y-13772222D01*
X14361825Y-13772222D02*
X14352301Y-13753174D01*
X14352301Y-13753174D02*
X14333253Y-13743650D01*
X14333253Y-13743650D02*
X14304682Y-13743650D01*
X14304682Y-13743650D02*
X14285634Y-13753174D01*
X14285634Y-13753174D02*
X14276110Y-13762698D01*
X14485634Y-13876984D02*
X14466587Y-13867460D01*
X14466587Y-13867460D02*
X14457063Y-13857936D01*
X14457063Y-13857936D02*
X14447539Y-13838888D01*
X14447539Y-13838888D02*
X14447539Y-13781746D01*
X14447539Y-13781746D02*
X14457063Y-13762698D01*
X14457063Y-13762698D02*
X14466587Y-13753174D01*
X14466587Y-13753174D02*
X14485634Y-13743650D01*
X14485634Y-13743650D02*
X14514206Y-13743650D01*
X14514206Y-13743650D02*
X14533253Y-13753174D01*
X14533253Y-13753174D02*
X14542777Y-13762698D01*
X14542777Y-13762698D02*
X14552301Y-13781746D01*
X14552301Y-13781746D02*
X14552301Y-13838888D01*
X14552301Y-13838888D02*
X14542777Y-13857936D01*
X14542777Y-13857936D02*
X14533253Y-13867460D01*
X14533253Y-13867460D02*
X14514206Y-13876984D01*
X14514206Y-13876984D02*
X14485634Y-13876984D01*
X14666587Y-13876984D02*
X14647539Y-13867460D01*
X14647539Y-13867460D02*
X14638015Y-13848412D01*
X14638015Y-13848412D02*
X14638015Y-13676984D01*
X14818968Y-13867460D02*
X14799920Y-13876984D01*
X14799920Y-13876984D02*
X14761825Y-13876984D01*
X14761825Y-13876984D02*
X14742777Y-13867460D01*
X14742777Y-13867460D02*
X14733253Y-13848412D01*
X14733253Y-13848412D02*
X14733253Y-13772222D01*
X14733253Y-13772222D02*
X14742777Y-13753174D01*
X14742777Y-13753174D02*
X14761825Y-13743650D01*
X14761825Y-13743650D02*
X14799920Y-13743650D01*
X14799920Y-13743650D02*
X14818968Y-13753174D01*
X14818968Y-13753174D02*
X14828491Y-13772222D01*
X14828491Y-13772222D02*
X14828491Y-13791269D01*
X14828491Y-13791269D02*
X14733253Y-13810317D01*
X14904682Y-13867460D02*
X14923730Y-13876984D01*
X14923730Y-13876984D02*
X14961825Y-13876984D01*
X14961825Y-13876984D02*
X14980872Y-13867460D01*
X14980872Y-13867460D02*
X14990396Y-13848412D01*
X14990396Y-13848412D02*
X14990396Y-13838888D01*
X14990396Y-13838888D02*
X14980872Y-13819841D01*
X14980872Y-13819841D02*
X14961825Y-13810317D01*
X14961825Y-13810317D02*
X14933253Y-13810317D01*
X14933253Y-13810317D02*
X14914206Y-13800793D01*
X14914206Y-13800793D02*
X14904682Y-13781746D01*
X14904682Y-13781746D02*
X14904682Y-13772222D01*
X14904682Y-13772222D02*
X14914206Y-13753174D01*
X14914206Y-13753174D02*
X14933253Y-13743650D01*
X14933253Y-13743650D02*
X14961825Y-13743650D01*
X14961825Y-13743650D02*
X14980872Y-13753174D01*
X15057063Y-13953174D02*
X15066587Y-13943650D01*
X15066587Y-13943650D02*
X15085634Y-13915079D01*
X15085634Y-13915079D02*
X15095158Y-13896031D01*
X15095158Y-13896031D02*
X15104682Y-13867460D01*
X15104682Y-13867460D02*
X15114206Y-13819841D01*
X15114206Y-13819841D02*
X15114206Y-13781746D01*
X15114206Y-13781746D02*
X15104682Y-13734127D01*
X15104682Y-13734127D02*
X15095158Y-13705555D01*
X15095158Y-13705555D02*
X15085634Y-13686508D01*
X15085634Y-13686508D02*
X15066587Y-13657936D01*
X15066587Y-13657936D02*
X15057063Y-13648412D01*
D10*
X10282000Y-14049500D02*
G75*
G03*
X10212000Y-14049500I-35000J0D01*
G01*
X10212000Y-14049500D02*
G75*
G03*
X10282000Y-14049500I35000J0D01*
G01*
D11*
X10580872Y-13940984D02*
X10599920Y-13940984D01*
X10599920Y-13940984D02*
X10618967Y-13950508D01*
X10618967Y-13950508D02*
X10628491Y-13960031D01*
X10628491Y-13960031D02*
X10638015Y-13979079D01*
X10638015Y-13979079D02*
X10647539Y-14017174D01*
X10647539Y-14017174D02*
X10647539Y-14064793D01*
X10647539Y-14064793D02*
X10638015Y-14102888D01*
X10638015Y-14102888D02*
X10628491Y-14121936D01*
X10628491Y-14121936D02*
X10618967Y-14131460D01*
X10618967Y-14131460D02*
X10599920Y-14140984D01*
X10599920Y-14140984D02*
X10580872Y-14140984D01*
X10580872Y-14140984D02*
X10561824Y-14131460D01*
X10561824Y-14131460D02*
X10552301Y-14121936D01*
X10552301Y-14121936D02*
X10542777Y-14102888D01*
X10542777Y-14102888D02*
X10533253Y-14064793D01*
X10533253Y-14064793D02*
X10533253Y-14017174D01*
X10533253Y-14017174D02*
X10542777Y-13979079D01*
X10542777Y-13979079D02*
X10552301Y-13960031D01*
X10552301Y-13960031D02*
X10561824Y-13950508D01*
X10561824Y-13950508D02*
X10580872Y-13940984D01*
X10733253Y-14121936D02*
X10742777Y-14131460D01*
X10742777Y-14131460D02*
X10733253Y-14140984D01*
X10733253Y-14140984D02*
X10723729Y-14131460D01*
X10723729Y-14131460D02*
X10733253Y-14121936D01*
X10733253Y-14121936D02*
X10733253Y-14140984D01*
X10809444Y-13940984D02*
X10942777Y-13940984D01*
X10942777Y-13940984D02*
X10857063Y-14140984D01*
X11057063Y-13940984D02*
X11076110Y-13940984D01*
X11076110Y-13940984D02*
X11095158Y-13950508D01*
X11095158Y-13950508D02*
X11104682Y-13960031D01*
X11104682Y-13960031D02*
X11114205Y-13979079D01*
X11114205Y-13979079D02*
X11123729Y-14017174D01*
X11123729Y-14017174D02*
X11123729Y-14064793D01*
X11123729Y-14064793D02*
X11114205Y-14102888D01*
X11114205Y-14102888D02*
X11104682Y-14121936D01*
X11104682Y-14121936D02*
X11095158Y-14131460D01*
X11095158Y-14131460D02*
X11076110Y-14140984D01*
X11076110Y-14140984D02*
X11057063Y-14140984D01*
X11057063Y-14140984D02*
X11038015Y-14131460D01*
X11038015Y-14131460D02*
X11028491Y-14121936D01*
X11028491Y-14121936D02*
X11018967Y-14102888D01*
X11018967Y-14102888D02*
X11009444Y-14064793D01*
X11009444Y-14064793D02*
X11009444Y-14017174D01*
X11009444Y-14017174D02*
X11018967Y-13979079D01*
X11018967Y-13979079D02*
X11028491Y-13960031D01*
X11028491Y-13960031D02*
X11038015Y-13950508D01*
X11038015Y-13950508D02*
X11057063Y-13940984D01*
X11247539Y-13940984D02*
X11266586Y-13940984D01*
X11266586Y-13940984D02*
X11285634Y-13950508D01*
X11285634Y-13950508D02*
X11295158Y-13960031D01*
X11295158Y-13960031D02*
X11304682Y-13979079D01*
X11304682Y-13979079D02*
X11314205Y-14017174D01*
X11314205Y-14017174D02*
X11314205Y-14064793D01*
X11314205Y-14064793D02*
X11304682Y-14102888D01*
X11304682Y-14102888D02*
X11295158Y-14121936D01*
X11295158Y-14121936D02*
X11285634Y-14131460D01*
X11285634Y-14131460D02*
X11266586Y-14140984D01*
X11266586Y-14140984D02*
X11247539Y-14140984D01*
X11247539Y-14140984D02*
X11228491Y-14131460D01*
X11228491Y-14131460D02*
X11218967Y-14121936D01*
X11218967Y-14121936D02*
X11209443Y-14102888D01*
X11209443Y-14102888D02*
X11199920Y-14064793D01*
X11199920Y-14064793D02*
X11199920Y-14017174D01*
X11199920Y-14017174D02*
X11209443Y-13979079D01*
X11209443Y-13979079D02*
X11218967Y-13960031D01*
X11218967Y-13960031D02*
X11228491Y-13950508D01*
X11228491Y-13950508D02*
X11247539Y-13940984D01*
X11399920Y-14140984D02*
X11399920Y-14007650D01*
X11399920Y-14026698D02*
X11409443Y-14017174D01*
X11409443Y-14017174D02*
X11428491Y-14007650D01*
X11428491Y-14007650D02*
X11457063Y-14007650D01*
X11457063Y-14007650D02*
X11476110Y-14017174D01*
X11476110Y-14017174D02*
X11485634Y-14036222D01*
X11485634Y-14036222D02*
X11485634Y-14140984D01*
X11485634Y-14036222D02*
X11495158Y-14017174D01*
X11495158Y-14017174D02*
X11514205Y-14007650D01*
X11514205Y-14007650D02*
X11542777Y-14007650D01*
X11542777Y-14007650D02*
X11561824Y-14017174D01*
X11561824Y-14017174D02*
X11571348Y-14036222D01*
X11571348Y-14036222D02*
X11571348Y-14140984D01*
X11666586Y-14140984D02*
X11666586Y-14007650D01*
X11666586Y-14026698D02*
X11676110Y-14017174D01*
X11676110Y-14017174D02*
X11695158Y-14007650D01*
X11695158Y-14007650D02*
X11723729Y-14007650D01*
X11723729Y-14007650D02*
X11742777Y-14017174D01*
X11742777Y-14017174D02*
X11752301Y-14036222D01*
X11752301Y-14036222D02*
X11752301Y-14140984D01*
X11752301Y-14036222D02*
X11761824Y-14017174D01*
X11761824Y-14017174D02*
X11780872Y-14007650D01*
X11780872Y-14007650D02*
X11809443Y-14007650D01*
X11809443Y-14007650D02*
X11828491Y-14017174D01*
X11828491Y-14017174D02*
X11838015Y-14036222D01*
X11838015Y-14036222D02*
X11838015Y-14140984D01*
X12228491Y-13931460D02*
X12057063Y-14188603D01*
X12485634Y-13940984D02*
X12504682Y-13940984D01*
X12504682Y-13940984D02*
X12523729Y-13950508D01*
X12523729Y-13950508D02*
X12533253Y-13960031D01*
X12533253Y-13960031D02*
X12542777Y-13979079D01*
X12542777Y-13979079D02*
X12552301Y-14017174D01*
X12552301Y-14017174D02*
X12552301Y-14064793D01*
X12552301Y-14064793D02*
X12542777Y-14102888D01*
X12542777Y-14102888D02*
X12533253Y-14121936D01*
X12533253Y-14121936D02*
X12523729Y-14131460D01*
X12523729Y-14131460D02*
X12504682Y-14140984D01*
X12504682Y-14140984D02*
X12485634Y-14140984D01*
X12485634Y-14140984D02*
X12466586Y-14131460D01*
X12466586Y-14131460D02*
X12457063Y-14121936D01*
X12457063Y-14121936D02*
X12447539Y-14102888D01*
X12447539Y-14102888D02*
X12438015Y-14064793D01*
X12438015Y-14064793D02*
X12438015Y-14017174D01*
X12438015Y-14017174D02*
X12447539Y-13979079D01*
X12447539Y-13979079D02*
X12457063Y-13960031D01*
X12457063Y-13960031D02*
X12466586Y-13950508D01*
X12466586Y-13950508D02*
X12485634Y-13940984D01*
X12638015Y-14121936D02*
X12647539Y-14131460D01*
X12647539Y-14131460D02*
X12638015Y-14140984D01*
X12638015Y-14140984D02*
X12628491Y-14131460D01*
X12628491Y-14131460D02*
X12638015Y-14121936D01*
X12638015Y-14121936D02*
X12638015Y-14140984D01*
X12771348Y-13940984D02*
X12790396Y-13940984D01*
X12790396Y-13940984D02*
X12809444Y-13950508D01*
X12809444Y-13950508D02*
X12818967Y-13960031D01*
X12818967Y-13960031D02*
X12828491Y-13979079D01*
X12828491Y-13979079D02*
X12838015Y-14017174D01*
X12838015Y-14017174D02*
X12838015Y-14064793D01*
X12838015Y-14064793D02*
X12828491Y-14102888D01*
X12828491Y-14102888D02*
X12818967Y-14121936D01*
X12818967Y-14121936D02*
X12809444Y-14131460D01*
X12809444Y-14131460D02*
X12790396Y-14140984D01*
X12790396Y-14140984D02*
X12771348Y-14140984D01*
X12771348Y-14140984D02*
X12752301Y-14131460D01*
X12752301Y-14131460D02*
X12742777Y-14121936D01*
X12742777Y-14121936D02*
X12733253Y-14102888D01*
X12733253Y-14102888D02*
X12723729Y-14064793D01*
X12723729Y-14064793D02*
X12723729Y-14017174D01*
X12723729Y-14017174D02*
X12733253Y-13979079D01*
X12733253Y-13979079D02*
X12742777Y-13960031D01*
X12742777Y-13960031D02*
X12752301Y-13950508D01*
X12752301Y-13950508D02*
X12771348Y-13940984D01*
X12914206Y-13960031D02*
X12923729Y-13950508D01*
X12923729Y-13950508D02*
X12942777Y-13940984D01*
X12942777Y-13940984D02*
X12990396Y-13940984D01*
X12990396Y-13940984D02*
X13009444Y-13950508D01*
X13009444Y-13950508D02*
X13018967Y-13960031D01*
X13018967Y-13960031D02*
X13028491Y-13979079D01*
X13028491Y-13979079D02*
X13028491Y-13998127D01*
X13028491Y-13998127D02*
X13018967Y-14026698D01*
X13018967Y-14026698D02*
X12904682Y-14140984D01*
X12904682Y-14140984D02*
X13028491Y-14140984D01*
X13095158Y-13940984D02*
X13228491Y-13940984D01*
X13228491Y-13940984D02*
X13142777Y-14140984D01*
X13390396Y-13940984D02*
X13352301Y-13940984D01*
X13352301Y-13940984D02*
X13333253Y-13950508D01*
X13333253Y-13950508D02*
X13323729Y-13960031D01*
X13323729Y-13960031D02*
X13304682Y-13988603D01*
X13304682Y-13988603D02*
X13295158Y-14026698D01*
X13295158Y-14026698D02*
X13295158Y-14102888D01*
X13295158Y-14102888D02*
X13304682Y-14121936D01*
X13304682Y-14121936D02*
X13314206Y-14131460D01*
X13314206Y-14131460D02*
X13333253Y-14140984D01*
X13333253Y-14140984D02*
X13371348Y-14140984D01*
X13371348Y-14140984D02*
X13390396Y-14131460D01*
X13390396Y-14131460D02*
X13399920Y-14121936D01*
X13399920Y-14121936D02*
X13409444Y-14102888D01*
X13409444Y-14102888D02*
X13409444Y-14055269D01*
X13409444Y-14055269D02*
X13399920Y-14036222D01*
X13399920Y-14036222D02*
X13390396Y-14026698D01*
X13390396Y-14026698D02*
X13371348Y-14017174D01*
X13371348Y-14017174D02*
X13333253Y-14017174D01*
X13333253Y-14017174D02*
X13314206Y-14026698D01*
X13314206Y-14026698D02*
X13304682Y-14036222D01*
X13304682Y-14036222D02*
X13295158Y-14055269D01*
X13485634Y-13940984D02*
X13485634Y-13979079D01*
X13561825Y-13940984D02*
X13561825Y-13979079D01*
X13857063Y-14217174D02*
X13847539Y-14207650D01*
X13847539Y-14207650D02*
X13828491Y-14179079D01*
X13828491Y-14179079D02*
X13818968Y-14160031D01*
X13818968Y-14160031D02*
X13809444Y-14131460D01*
X13809444Y-14131460D02*
X13799920Y-14083841D01*
X13799920Y-14083841D02*
X13799920Y-14045746D01*
X13799920Y-14045746D02*
X13809444Y-13998127D01*
X13809444Y-13998127D02*
X13818968Y-13969555D01*
X13818968Y-13969555D02*
X13828491Y-13950508D01*
X13828491Y-13950508D02*
X13847539Y-13921936D01*
X13847539Y-13921936D02*
X13857063Y-13912412D01*
X13961825Y-14026698D02*
X13942777Y-14017174D01*
X13942777Y-14017174D02*
X13933253Y-14007650D01*
X13933253Y-14007650D02*
X13923729Y-13988603D01*
X13923729Y-13988603D02*
X13923729Y-13979079D01*
X13923729Y-13979079D02*
X13933253Y-13960031D01*
X13933253Y-13960031D02*
X13942777Y-13950508D01*
X13942777Y-13950508D02*
X13961825Y-13940984D01*
X13961825Y-13940984D02*
X13999920Y-13940984D01*
X13999920Y-13940984D02*
X14018968Y-13950508D01*
X14018968Y-13950508D02*
X14028491Y-13960031D01*
X14028491Y-13960031D02*
X14038015Y-13979079D01*
X14038015Y-13979079D02*
X14038015Y-13988603D01*
X14038015Y-13988603D02*
X14028491Y-14007650D01*
X14028491Y-14007650D02*
X14018968Y-14017174D01*
X14018968Y-14017174D02*
X13999920Y-14026698D01*
X13999920Y-14026698D02*
X13961825Y-14026698D01*
X13961825Y-14026698D02*
X13942777Y-14036222D01*
X13942777Y-14036222D02*
X13933253Y-14045746D01*
X13933253Y-14045746D02*
X13923729Y-14064793D01*
X13923729Y-14064793D02*
X13923729Y-14102888D01*
X13923729Y-14102888D02*
X13933253Y-14121936D01*
X13933253Y-14121936D02*
X13942777Y-14131460D01*
X13942777Y-14131460D02*
X13961825Y-14140984D01*
X13961825Y-14140984D02*
X13999920Y-14140984D01*
X13999920Y-14140984D02*
X14018968Y-14131460D01*
X14018968Y-14131460D02*
X14028491Y-14121936D01*
X14028491Y-14121936D02*
X14038015Y-14102888D01*
X14038015Y-14102888D02*
X14038015Y-14064793D01*
X14038015Y-14064793D02*
X14028491Y-14045746D01*
X14028491Y-14045746D02*
X14018968Y-14036222D01*
X14018968Y-14036222D02*
X13999920Y-14026698D01*
X14209444Y-13940984D02*
X14171348Y-13940984D01*
X14171348Y-13940984D02*
X14152301Y-13950508D01*
X14152301Y-13950508D02*
X14142777Y-13960031D01*
X14142777Y-13960031D02*
X14123729Y-13988603D01*
X14123729Y-13988603D02*
X14114206Y-14026698D01*
X14114206Y-14026698D02*
X14114206Y-14102888D01*
X14114206Y-14102888D02*
X14123729Y-14121936D01*
X14123729Y-14121936D02*
X14133253Y-14131460D01*
X14133253Y-14131460D02*
X14152301Y-14140984D01*
X14152301Y-14140984D02*
X14190396Y-14140984D01*
X14190396Y-14140984D02*
X14209444Y-14131460D01*
X14209444Y-14131460D02*
X14218968Y-14121936D01*
X14218968Y-14121936D02*
X14228491Y-14102888D01*
X14228491Y-14102888D02*
X14228491Y-14055269D01*
X14228491Y-14055269D02*
X14218968Y-14036222D01*
X14218968Y-14036222D02*
X14209444Y-14026698D01*
X14209444Y-14026698D02*
X14190396Y-14017174D01*
X14190396Y-14017174D02*
X14152301Y-14017174D01*
X14152301Y-14017174D02*
X14133253Y-14026698D01*
X14133253Y-14026698D02*
X14123729Y-14036222D01*
X14123729Y-14036222D02*
X14114206Y-14055269D01*
X14466587Y-14140984D02*
X14466587Y-13940984D01*
X14552301Y-14140984D02*
X14552301Y-14036222D01*
X14552301Y-14036222D02*
X14542777Y-14017174D01*
X14542777Y-14017174D02*
X14523730Y-14007650D01*
X14523730Y-14007650D02*
X14495158Y-14007650D01*
X14495158Y-14007650D02*
X14476110Y-14017174D01*
X14476110Y-14017174D02*
X14466587Y-14026698D01*
X14676110Y-14140984D02*
X14657063Y-14131460D01*
X14657063Y-14131460D02*
X14647539Y-14121936D01*
X14647539Y-14121936D02*
X14638015Y-14102888D01*
X14638015Y-14102888D02*
X14638015Y-14045746D01*
X14638015Y-14045746D02*
X14647539Y-14026698D01*
X14647539Y-14026698D02*
X14657063Y-14017174D01*
X14657063Y-14017174D02*
X14676110Y-14007650D01*
X14676110Y-14007650D02*
X14704682Y-14007650D01*
X14704682Y-14007650D02*
X14723730Y-14017174D01*
X14723730Y-14017174D02*
X14733253Y-14026698D01*
X14733253Y-14026698D02*
X14742777Y-14045746D01*
X14742777Y-14045746D02*
X14742777Y-14102888D01*
X14742777Y-14102888D02*
X14733253Y-14121936D01*
X14733253Y-14121936D02*
X14723730Y-14131460D01*
X14723730Y-14131460D02*
X14704682Y-14140984D01*
X14704682Y-14140984D02*
X14676110Y-14140984D01*
X14857063Y-14140984D02*
X14838015Y-14131460D01*
X14838015Y-14131460D02*
X14828491Y-14112412D01*
X14828491Y-14112412D02*
X14828491Y-13940984D01*
X15009444Y-14131460D02*
X14990396Y-14140984D01*
X14990396Y-14140984D02*
X14952301Y-14140984D01*
X14952301Y-14140984D02*
X14933253Y-14131460D01*
X14933253Y-14131460D02*
X14923730Y-14112412D01*
X14923730Y-14112412D02*
X14923730Y-14036222D01*
X14923730Y-14036222D02*
X14933253Y-14017174D01*
X14933253Y-14017174D02*
X14952301Y-14007650D01*
X14952301Y-14007650D02*
X14990396Y-14007650D01*
X14990396Y-14007650D02*
X15009444Y-14017174D01*
X15009444Y-14017174D02*
X15018968Y-14036222D01*
X15018968Y-14036222D02*
X15018968Y-14055269D01*
X15018968Y-14055269D02*
X14923730Y-14074317D01*
X15095158Y-14131460D02*
X15114206Y-14140984D01*
X15114206Y-14140984D02*
X15152301Y-14140984D01*
X15152301Y-14140984D02*
X15171349Y-14131460D01*
X15171349Y-14131460D02*
X15180872Y-14112412D01*
X15180872Y-14112412D02*
X15180872Y-14102888D01*
X15180872Y-14102888D02*
X15171349Y-14083841D01*
X15171349Y-14083841D02*
X15152301Y-14074317D01*
X15152301Y-14074317D02*
X15123730Y-14074317D01*
X15123730Y-14074317D02*
X15104682Y-14064793D01*
X15104682Y-14064793D02*
X15095158Y-14045746D01*
X15095158Y-14045746D02*
X15095158Y-14036222D01*
X15095158Y-14036222D02*
X15104682Y-14017174D01*
X15104682Y-14017174D02*
X15123730Y-14007650D01*
X15123730Y-14007650D02*
X15152301Y-14007650D01*
X15152301Y-14007650D02*
X15171349Y-14017174D01*
X15247539Y-14217174D02*
X15257063Y-14207650D01*
X15257063Y-14207650D02*
X15276111Y-14179079D01*
X15276111Y-14179079D02*
X15285634Y-14160031D01*
X15285634Y-14160031D02*
X15295158Y-14131460D01*
X15295158Y-14131460D02*
X15304682Y-14083841D01*
X15304682Y-14083841D02*
X15304682Y-14045746D01*
X15304682Y-14045746D02*
X15295158Y-13998127D01*
X15295158Y-13998127D02*
X15285634Y-13969555D01*
X15285634Y-13969555D02*
X15276111Y-13950508D01*
X15276111Y-13950508D02*
X15257063Y-13921936D01*
X15257063Y-13921936D02*
X15247539Y-13912412D01*
D10*
X10242000Y-14273500D02*
X10242000Y-14353500D01*
X10202000Y-14313500D02*
X10282000Y-14313500D01*
D11*
X10580872Y-14204984D02*
X10599920Y-14204984D01*
X10599920Y-14204984D02*
X10618967Y-14214508D01*
X10618967Y-14214508D02*
X10628491Y-14224031D01*
X10628491Y-14224031D02*
X10638015Y-14243079D01*
X10638015Y-14243079D02*
X10647539Y-14281174D01*
X10647539Y-14281174D02*
X10647539Y-14328793D01*
X10647539Y-14328793D02*
X10638015Y-14366888D01*
X10638015Y-14366888D02*
X10628491Y-14385936D01*
X10628491Y-14385936D02*
X10618967Y-14395460D01*
X10618967Y-14395460D02*
X10599920Y-14404984D01*
X10599920Y-14404984D02*
X10580872Y-14404984D01*
X10580872Y-14404984D02*
X10561824Y-14395460D01*
X10561824Y-14395460D02*
X10552301Y-14385936D01*
X10552301Y-14385936D02*
X10542777Y-14366888D01*
X10542777Y-14366888D02*
X10533253Y-14328793D01*
X10533253Y-14328793D02*
X10533253Y-14281174D01*
X10533253Y-14281174D02*
X10542777Y-14243079D01*
X10542777Y-14243079D02*
X10552301Y-14224031D01*
X10552301Y-14224031D02*
X10561824Y-14214508D01*
X10561824Y-14214508D02*
X10580872Y-14204984D01*
X10733253Y-14385936D02*
X10742777Y-14395460D01*
X10742777Y-14395460D02*
X10733253Y-14404984D01*
X10733253Y-14404984D02*
X10723729Y-14395460D01*
X10723729Y-14395460D02*
X10733253Y-14385936D01*
X10733253Y-14385936D02*
X10733253Y-14404984D01*
X10857063Y-14290698D02*
X10838015Y-14281174D01*
X10838015Y-14281174D02*
X10828491Y-14271650D01*
X10828491Y-14271650D02*
X10818967Y-14252603D01*
X10818967Y-14252603D02*
X10818967Y-14243079D01*
X10818967Y-14243079D02*
X10828491Y-14224031D01*
X10828491Y-14224031D02*
X10838015Y-14214508D01*
X10838015Y-14214508D02*
X10857063Y-14204984D01*
X10857063Y-14204984D02*
X10895158Y-14204984D01*
X10895158Y-14204984D02*
X10914205Y-14214508D01*
X10914205Y-14214508D02*
X10923729Y-14224031D01*
X10923729Y-14224031D02*
X10933253Y-14243079D01*
X10933253Y-14243079D02*
X10933253Y-14252603D01*
X10933253Y-14252603D02*
X10923729Y-14271650D01*
X10923729Y-14271650D02*
X10914205Y-14281174D01*
X10914205Y-14281174D02*
X10895158Y-14290698D01*
X10895158Y-14290698D02*
X10857063Y-14290698D01*
X10857063Y-14290698D02*
X10838015Y-14300222D01*
X10838015Y-14300222D02*
X10828491Y-14309746D01*
X10828491Y-14309746D02*
X10818967Y-14328793D01*
X10818967Y-14328793D02*
X10818967Y-14366888D01*
X10818967Y-14366888D02*
X10828491Y-14385936D01*
X10828491Y-14385936D02*
X10838015Y-14395460D01*
X10838015Y-14395460D02*
X10857063Y-14404984D01*
X10857063Y-14404984D02*
X10895158Y-14404984D01*
X10895158Y-14404984D02*
X10914205Y-14395460D01*
X10914205Y-14395460D02*
X10923729Y-14385936D01*
X10923729Y-14385936D02*
X10933253Y-14366888D01*
X10933253Y-14366888D02*
X10933253Y-14328793D01*
X10933253Y-14328793D02*
X10923729Y-14309746D01*
X10923729Y-14309746D02*
X10914205Y-14300222D01*
X10914205Y-14300222D02*
X10895158Y-14290698D01*
X11057063Y-14204984D02*
X11076110Y-14204984D01*
X11076110Y-14204984D02*
X11095158Y-14214508D01*
X11095158Y-14214508D02*
X11104682Y-14224031D01*
X11104682Y-14224031D02*
X11114205Y-14243079D01*
X11114205Y-14243079D02*
X11123729Y-14281174D01*
X11123729Y-14281174D02*
X11123729Y-14328793D01*
X11123729Y-14328793D02*
X11114205Y-14366888D01*
X11114205Y-14366888D02*
X11104682Y-14385936D01*
X11104682Y-14385936D02*
X11095158Y-14395460D01*
X11095158Y-14395460D02*
X11076110Y-14404984D01*
X11076110Y-14404984D02*
X11057063Y-14404984D01*
X11057063Y-14404984D02*
X11038015Y-14395460D01*
X11038015Y-14395460D02*
X11028491Y-14385936D01*
X11028491Y-14385936D02*
X11018967Y-14366888D01*
X11018967Y-14366888D02*
X11009444Y-14328793D01*
X11009444Y-14328793D02*
X11009444Y-14281174D01*
X11009444Y-14281174D02*
X11018967Y-14243079D01*
X11018967Y-14243079D02*
X11028491Y-14224031D01*
X11028491Y-14224031D02*
X11038015Y-14214508D01*
X11038015Y-14214508D02*
X11057063Y-14204984D01*
X11247539Y-14204984D02*
X11266586Y-14204984D01*
X11266586Y-14204984D02*
X11285634Y-14214508D01*
X11285634Y-14214508D02*
X11295158Y-14224031D01*
X11295158Y-14224031D02*
X11304682Y-14243079D01*
X11304682Y-14243079D02*
X11314205Y-14281174D01*
X11314205Y-14281174D02*
X11314205Y-14328793D01*
X11314205Y-14328793D02*
X11304682Y-14366888D01*
X11304682Y-14366888D02*
X11295158Y-14385936D01*
X11295158Y-14385936D02*
X11285634Y-14395460D01*
X11285634Y-14395460D02*
X11266586Y-14404984D01*
X11266586Y-14404984D02*
X11247539Y-14404984D01*
X11247539Y-14404984D02*
X11228491Y-14395460D01*
X11228491Y-14395460D02*
X11218967Y-14385936D01*
X11218967Y-14385936D02*
X11209443Y-14366888D01*
X11209443Y-14366888D02*
X11199920Y-14328793D01*
X11199920Y-14328793D02*
X11199920Y-14281174D01*
X11199920Y-14281174D02*
X11209443Y-14243079D01*
X11209443Y-14243079D02*
X11218967Y-14224031D01*
X11218967Y-14224031D02*
X11228491Y-14214508D01*
X11228491Y-14214508D02*
X11247539Y-14204984D01*
X11399920Y-14404984D02*
X11399920Y-14271650D01*
X11399920Y-14290698D02*
X11409443Y-14281174D01*
X11409443Y-14281174D02*
X11428491Y-14271650D01*
X11428491Y-14271650D02*
X11457063Y-14271650D01*
X11457063Y-14271650D02*
X11476110Y-14281174D01*
X11476110Y-14281174D02*
X11485634Y-14300222D01*
X11485634Y-14300222D02*
X11485634Y-14404984D01*
X11485634Y-14300222D02*
X11495158Y-14281174D01*
X11495158Y-14281174D02*
X11514205Y-14271650D01*
X11514205Y-14271650D02*
X11542777Y-14271650D01*
X11542777Y-14271650D02*
X11561824Y-14281174D01*
X11561824Y-14281174D02*
X11571348Y-14300222D01*
X11571348Y-14300222D02*
X11571348Y-14404984D01*
X11666586Y-14404984D02*
X11666586Y-14271650D01*
X11666586Y-14290698D02*
X11676110Y-14281174D01*
X11676110Y-14281174D02*
X11695158Y-14271650D01*
X11695158Y-14271650D02*
X11723729Y-14271650D01*
X11723729Y-14271650D02*
X11742777Y-14281174D01*
X11742777Y-14281174D02*
X11752301Y-14300222D01*
X11752301Y-14300222D02*
X11752301Y-14404984D01*
X11752301Y-14300222D02*
X11761824Y-14281174D01*
X11761824Y-14281174D02*
X11780872Y-14271650D01*
X11780872Y-14271650D02*
X11809443Y-14271650D01*
X11809443Y-14271650D02*
X11828491Y-14281174D01*
X11828491Y-14281174D02*
X11838015Y-14300222D01*
X11838015Y-14300222D02*
X11838015Y-14404984D01*
X12228491Y-14195460D02*
X12057063Y-14452603D01*
X12485634Y-14204984D02*
X12504682Y-14204984D01*
X12504682Y-14204984D02*
X12523729Y-14214508D01*
X12523729Y-14214508D02*
X12533253Y-14224031D01*
X12533253Y-14224031D02*
X12542777Y-14243079D01*
X12542777Y-14243079D02*
X12552301Y-14281174D01*
X12552301Y-14281174D02*
X12552301Y-14328793D01*
X12552301Y-14328793D02*
X12542777Y-14366888D01*
X12542777Y-14366888D02*
X12533253Y-14385936D01*
X12533253Y-14385936D02*
X12523729Y-14395460D01*
X12523729Y-14395460D02*
X12504682Y-14404984D01*
X12504682Y-14404984D02*
X12485634Y-14404984D01*
X12485634Y-14404984D02*
X12466586Y-14395460D01*
X12466586Y-14395460D02*
X12457063Y-14385936D01*
X12457063Y-14385936D02*
X12447539Y-14366888D01*
X12447539Y-14366888D02*
X12438015Y-14328793D01*
X12438015Y-14328793D02*
X12438015Y-14281174D01*
X12438015Y-14281174D02*
X12447539Y-14243079D01*
X12447539Y-14243079D02*
X12457063Y-14224031D01*
X12457063Y-14224031D02*
X12466586Y-14214508D01*
X12466586Y-14214508D02*
X12485634Y-14204984D01*
X12638015Y-14385936D02*
X12647539Y-14395460D01*
X12647539Y-14395460D02*
X12638015Y-14404984D01*
X12638015Y-14404984D02*
X12628491Y-14395460D01*
X12628491Y-14395460D02*
X12638015Y-14385936D01*
X12638015Y-14385936D02*
X12638015Y-14404984D01*
X12771348Y-14204984D02*
X12790396Y-14204984D01*
X12790396Y-14204984D02*
X12809444Y-14214508D01*
X12809444Y-14214508D02*
X12818967Y-14224031D01*
X12818967Y-14224031D02*
X12828491Y-14243079D01*
X12828491Y-14243079D02*
X12838015Y-14281174D01*
X12838015Y-14281174D02*
X12838015Y-14328793D01*
X12838015Y-14328793D02*
X12828491Y-14366888D01*
X12828491Y-14366888D02*
X12818967Y-14385936D01*
X12818967Y-14385936D02*
X12809444Y-14395460D01*
X12809444Y-14395460D02*
X12790396Y-14404984D01*
X12790396Y-14404984D02*
X12771348Y-14404984D01*
X12771348Y-14404984D02*
X12752301Y-14395460D01*
X12752301Y-14395460D02*
X12742777Y-14385936D01*
X12742777Y-14385936D02*
X12733253Y-14366888D01*
X12733253Y-14366888D02*
X12723729Y-14328793D01*
X12723729Y-14328793D02*
X12723729Y-14281174D01*
X12723729Y-14281174D02*
X12733253Y-14243079D01*
X12733253Y-14243079D02*
X12742777Y-14224031D01*
X12742777Y-14224031D02*
X12752301Y-14214508D01*
X12752301Y-14214508D02*
X12771348Y-14204984D01*
X12904682Y-14204984D02*
X13028491Y-14204984D01*
X13028491Y-14204984D02*
X12961825Y-14281174D01*
X12961825Y-14281174D02*
X12990396Y-14281174D01*
X12990396Y-14281174D02*
X13009444Y-14290698D01*
X13009444Y-14290698D02*
X13018967Y-14300222D01*
X13018967Y-14300222D02*
X13028491Y-14319269D01*
X13028491Y-14319269D02*
X13028491Y-14366888D01*
X13028491Y-14366888D02*
X13018967Y-14385936D01*
X13018967Y-14385936D02*
X13009444Y-14395460D01*
X13009444Y-14395460D02*
X12990396Y-14404984D01*
X12990396Y-14404984D02*
X12933253Y-14404984D01*
X12933253Y-14404984D02*
X12914206Y-14395460D01*
X12914206Y-14395460D02*
X12904682Y-14385936D01*
X13218967Y-14404984D02*
X13104682Y-14404984D01*
X13161825Y-14404984D02*
X13161825Y-14204984D01*
X13161825Y-14204984D02*
X13142777Y-14233555D01*
X13142777Y-14233555D02*
X13123729Y-14252603D01*
X13123729Y-14252603D02*
X13104682Y-14262127D01*
X13399920Y-14204984D02*
X13304682Y-14204984D01*
X13304682Y-14204984D02*
X13295158Y-14300222D01*
X13295158Y-14300222D02*
X13304682Y-14290698D01*
X13304682Y-14290698D02*
X13323729Y-14281174D01*
X13323729Y-14281174D02*
X13371348Y-14281174D01*
X13371348Y-14281174D02*
X13390396Y-14290698D01*
X13390396Y-14290698D02*
X13399920Y-14300222D01*
X13399920Y-14300222D02*
X13409444Y-14319269D01*
X13409444Y-14319269D02*
X13409444Y-14366888D01*
X13409444Y-14366888D02*
X13399920Y-14385936D01*
X13399920Y-14385936D02*
X13390396Y-14395460D01*
X13390396Y-14395460D02*
X13371348Y-14404984D01*
X13371348Y-14404984D02*
X13323729Y-14404984D01*
X13323729Y-14404984D02*
X13304682Y-14395460D01*
X13304682Y-14395460D02*
X13295158Y-14385936D01*
X13485634Y-14204984D02*
X13485634Y-14243079D01*
X13561825Y-14204984D02*
X13561825Y-14243079D01*
X13857063Y-14481174D02*
X13847539Y-14471650D01*
X13847539Y-14471650D02*
X13828491Y-14443079D01*
X13828491Y-14443079D02*
X13818968Y-14424031D01*
X13818968Y-14424031D02*
X13809444Y-14395460D01*
X13809444Y-14395460D02*
X13799920Y-14347841D01*
X13799920Y-14347841D02*
X13799920Y-14309746D01*
X13799920Y-14309746D02*
X13809444Y-14262127D01*
X13809444Y-14262127D02*
X13818968Y-14233555D01*
X13818968Y-14233555D02*
X13828491Y-14214508D01*
X13828491Y-14214508D02*
X13847539Y-14185936D01*
X13847539Y-14185936D02*
X13857063Y-14176412D01*
X14028491Y-14204984D02*
X13933253Y-14204984D01*
X13933253Y-14204984D02*
X13923729Y-14300222D01*
X13923729Y-14300222D02*
X13933253Y-14290698D01*
X13933253Y-14290698D02*
X13952301Y-14281174D01*
X13952301Y-14281174D02*
X13999920Y-14281174D01*
X13999920Y-14281174D02*
X14018968Y-14290698D01*
X14018968Y-14290698D02*
X14028491Y-14300222D01*
X14028491Y-14300222D02*
X14038015Y-14319269D01*
X14038015Y-14319269D02*
X14038015Y-14366888D01*
X14038015Y-14366888D02*
X14028491Y-14385936D01*
X14028491Y-14385936D02*
X14018968Y-14395460D01*
X14018968Y-14395460D02*
X13999920Y-14404984D01*
X13999920Y-14404984D02*
X13952301Y-14404984D01*
X13952301Y-14404984D02*
X13933253Y-14395460D01*
X13933253Y-14395460D02*
X13923729Y-14385936D01*
X14161825Y-14204984D02*
X14180872Y-14204984D01*
X14180872Y-14204984D02*
X14199920Y-14214508D01*
X14199920Y-14214508D02*
X14209444Y-14224031D01*
X14209444Y-14224031D02*
X14218968Y-14243079D01*
X14218968Y-14243079D02*
X14228491Y-14281174D01*
X14228491Y-14281174D02*
X14228491Y-14328793D01*
X14228491Y-14328793D02*
X14218968Y-14366888D01*
X14218968Y-14366888D02*
X14209444Y-14385936D01*
X14209444Y-14385936D02*
X14199920Y-14395460D01*
X14199920Y-14395460D02*
X14180872Y-14404984D01*
X14180872Y-14404984D02*
X14161825Y-14404984D01*
X14161825Y-14404984D02*
X14142777Y-14395460D01*
X14142777Y-14395460D02*
X14133253Y-14385936D01*
X14133253Y-14385936D02*
X14123729Y-14366888D01*
X14123729Y-14366888D02*
X14114206Y-14328793D01*
X14114206Y-14328793D02*
X14114206Y-14281174D01*
X14114206Y-14281174D02*
X14123729Y-14243079D01*
X14123729Y-14243079D02*
X14133253Y-14224031D01*
X14133253Y-14224031D02*
X14142777Y-14214508D01*
X14142777Y-14214508D02*
X14161825Y-14204984D01*
X14466587Y-14404984D02*
X14466587Y-14204984D01*
X14552301Y-14404984D02*
X14552301Y-14300222D01*
X14552301Y-14300222D02*
X14542777Y-14281174D01*
X14542777Y-14281174D02*
X14523730Y-14271650D01*
X14523730Y-14271650D02*
X14495158Y-14271650D01*
X14495158Y-14271650D02*
X14476110Y-14281174D01*
X14476110Y-14281174D02*
X14466587Y-14290698D01*
X14676110Y-14404984D02*
X14657063Y-14395460D01*
X14657063Y-14395460D02*
X14647539Y-14385936D01*
X14647539Y-14385936D02*
X14638015Y-14366888D01*
X14638015Y-14366888D02*
X14638015Y-14309746D01*
X14638015Y-14309746D02*
X14647539Y-14290698D01*
X14647539Y-14290698D02*
X14657063Y-14281174D01*
X14657063Y-14281174D02*
X14676110Y-14271650D01*
X14676110Y-14271650D02*
X14704682Y-14271650D01*
X14704682Y-14271650D02*
X14723730Y-14281174D01*
X14723730Y-14281174D02*
X14733253Y-14290698D01*
X14733253Y-14290698D02*
X14742777Y-14309746D01*
X14742777Y-14309746D02*
X14742777Y-14366888D01*
X14742777Y-14366888D02*
X14733253Y-14385936D01*
X14733253Y-14385936D02*
X14723730Y-14395460D01*
X14723730Y-14395460D02*
X14704682Y-14404984D01*
X14704682Y-14404984D02*
X14676110Y-14404984D01*
X14857063Y-14404984D02*
X14838015Y-14395460D01*
X14838015Y-14395460D02*
X14828491Y-14376412D01*
X14828491Y-14376412D02*
X14828491Y-14204984D01*
X15009444Y-14395460D02*
X14990396Y-14404984D01*
X14990396Y-14404984D02*
X14952301Y-14404984D01*
X14952301Y-14404984D02*
X14933253Y-14395460D01*
X14933253Y-14395460D02*
X14923730Y-14376412D01*
X14923730Y-14376412D02*
X14923730Y-14300222D01*
X14923730Y-14300222D02*
X14933253Y-14281174D01*
X14933253Y-14281174D02*
X14952301Y-14271650D01*
X14952301Y-14271650D02*
X14990396Y-14271650D01*
X14990396Y-14271650D02*
X15009444Y-14281174D01*
X15009444Y-14281174D02*
X15018968Y-14300222D01*
X15018968Y-14300222D02*
X15018968Y-14319269D01*
X15018968Y-14319269D02*
X14923730Y-14338317D01*
X15095158Y-14395460D02*
X15114206Y-14404984D01*
X15114206Y-14404984D02*
X15152301Y-14404984D01*
X15152301Y-14404984D02*
X15171349Y-14395460D01*
X15171349Y-14395460D02*
X15180872Y-14376412D01*
X15180872Y-14376412D02*
X15180872Y-14366888D01*
X15180872Y-14366888D02*
X15171349Y-14347841D01*
X15171349Y-14347841D02*
X15152301Y-14338317D01*
X15152301Y-14338317D02*
X15123730Y-14338317D01*
X15123730Y-14338317D02*
X15104682Y-14328793D01*
X15104682Y-14328793D02*
X15095158Y-14309746D01*
X15095158Y-14309746D02*
X15095158Y-14300222D01*
X15095158Y-14300222D02*
X15104682Y-14281174D01*
X15104682Y-14281174D02*
X15123730Y-14271650D01*
X15123730Y-14271650D02*
X15152301Y-14271650D01*
X15152301Y-14271650D02*
X15171349Y-14281174D01*
X15247539Y-14481174D02*
X15257063Y-14471650D01*
X15257063Y-14471650D02*
X15276111Y-14443079D01*
X15276111Y-14443079D02*
X15285634Y-14424031D01*
X15285634Y-14424031D02*
X15295158Y-14395460D01*
X15295158Y-14395460D02*
X15304682Y-14347841D01*
X15304682Y-14347841D02*
X15304682Y-14309746D01*
X15304682Y-14309746D02*
X15295158Y-14262127D01*
X15295158Y-14262127D02*
X15285634Y-14233555D01*
X15285634Y-14233555D02*
X15276111Y-14214508D01*
X15276111Y-14214508D02*
X15257063Y-14185936D01*
X15257063Y-14185936D02*
X15247539Y-14176412D01*
D10*
X10267356Y-14612856D02*
X10267356Y-14542144D01*
X10196644Y-14542144D01*
X10196644Y-14612856D01*
X10267356Y-14612856D01*
D11*
X10647539Y-14668984D02*
X10533253Y-14668984D01*
X10590396Y-14668984D02*
X10590396Y-14468984D01*
X10590396Y-14468984D02*
X10571348Y-14497555D01*
X10571348Y-14497555D02*
X10552301Y-14516603D01*
X10552301Y-14516603D02*
X10533253Y-14526127D01*
X10733253Y-14649936D02*
X10742777Y-14659460D01*
X10742777Y-14659460D02*
X10733253Y-14668984D01*
X10733253Y-14668984D02*
X10723729Y-14659460D01*
X10723729Y-14659460D02*
X10733253Y-14649936D01*
X10733253Y-14649936D02*
X10733253Y-14668984D01*
X10866586Y-14468984D02*
X10885634Y-14468984D01*
X10885634Y-14468984D02*
X10904682Y-14478508D01*
X10904682Y-14478508D02*
X10914205Y-14488031D01*
X10914205Y-14488031D02*
X10923729Y-14507079D01*
X10923729Y-14507079D02*
X10933253Y-14545174D01*
X10933253Y-14545174D02*
X10933253Y-14592793D01*
X10933253Y-14592793D02*
X10923729Y-14630888D01*
X10923729Y-14630888D02*
X10914205Y-14649936D01*
X10914205Y-14649936D02*
X10904682Y-14659460D01*
X10904682Y-14659460D02*
X10885634Y-14668984D01*
X10885634Y-14668984D02*
X10866586Y-14668984D01*
X10866586Y-14668984D02*
X10847539Y-14659460D01*
X10847539Y-14659460D02*
X10838015Y-14649936D01*
X10838015Y-14649936D02*
X10828491Y-14630888D01*
X10828491Y-14630888D02*
X10818967Y-14592793D01*
X10818967Y-14592793D02*
X10818967Y-14545174D01*
X10818967Y-14545174D02*
X10828491Y-14507079D01*
X10828491Y-14507079D02*
X10838015Y-14488031D01*
X10838015Y-14488031D02*
X10847539Y-14478508D01*
X10847539Y-14478508D02*
X10866586Y-14468984D01*
X11057063Y-14468984D02*
X11076110Y-14468984D01*
X11076110Y-14468984D02*
X11095158Y-14478508D01*
X11095158Y-14478508D02*
X11104682Y-14488031D01*
X11104682Y-14488031D02*
X11114205Y-14507079D01*
X11114205Y-14507079D02*
X11123729Y-14545174D01*
X11123729Y-14545174D02*
X11123729Y-14592793D01*
X11123729Y-14592793D02*
X11114205Y-14630888D01*
X11114205Y-14630888D02*
X11104682Y-14649936D01*
X11104682Y-14649936D02*
X11095158Y-14659460D01*
X11095158Y-14659460D02*
X11076110Y-14668984D01*
X11076110Y-14668984D02*
X11057063Y-14668984D01*
X11057063Y-14668984D02*
X11038015Y-14659460D01*
X11038015Y-14659460D02*
X11028491Y-14649936D01*
X11028491Y-14649936D02*
X11018967Y-14630888D01*
X11018967Y-14630888D02*
X11009444Y-14592793D01*
X11009444Y-14592793D02*
X11009444Y-14545174D01*
X11009444Y-14545174D02*
X11018967Y-14507079D01*
X11018967Y-14507079D02*
X11028491Y-14488031D01*
X11028491Y-14488031D02*
X11038015Y-14478508D01*
X11038015Y-14478508D02*
X11057063Y-14468984D01*
X11247539Y-14468984D02*
X11266586Y-14468984D01*
X11266586Y-14468984D02*
X11285634Y-14478508D01*
X11285634Y-14478508D02*
X11295158Y-14488031D01*
X11295158Y-14488031D02*
X11304682Y-14507079D01*
X11304682Y-14507079D02*
X11314205Y-14545174D01*
X11314205Y-14545174D02*
X11314205Y-14592793D01*
X11314205Y-14592793D02*
X11304682Y-14630888D01*
X11304682Y-14630888D02*
X11295158Y-14649936D01*
X11295158Y-14649936D02*
X11285634Y-14659460D01*
X11285634Y-14659460D02*
X11266586Y-14668984D01*
X11266586Y-14668984D02*
X11247539Y-14668984D01*
X11247539Y-14668984D02*
X11228491Y-14659460D01*
X11228491Y-14659460D02*
X11218967Y-14649936D01*
X11218967Y-14649936D02*
X11209443Y-14630888D01*
X11209443Y-14630888D02*
X11199920Y-14592793D01*
X11199920Y-14592793D02*
X11199920Y-14545174D01*
X11199920Y-14545174D02*
X11209443Y-14507079D01*
X11209443Y-14507079D02*
X11218967Y-14488031D01*
X11218967Y-14488031D02*
X11228491Y-14478508D01*
X11228491Y-14478508D02*
X11247539Y-14468984D01*
X11399920Y-14668984D02*
X11399920Y-14535650D01*
X11399920Y-14554698D02*
X11409443Y-14545174D01*
X11409443Y-14545174D02*
X11428491Y-14535650D01*
X11428491Y-14535650D02*
X11457063Y-14535650D01*
X11457063Y-14535650D02*
X11476110Y-14545174D01*
X11476110Y-14545174D02*
X11485634Y-14564222D01*
X11485634Y-14564222D02*
X11485634Y-14668984D01*
X11485634Y-14564222D02*
X11495158Y-14545174D01*
X11495158Y-14545174D02*
X11514205Y-14535650D01*
X11514205Y-14535650D02*
X11542777Y-14535650D01*
X11542777Y-14535650D02*
X11561824Y-14545174D01*
X11561824Y-14545174D02*
X11571348Y-14564222D01*
X11571348Y-14564222D02*
X11571348Y-14668984D01*
X11666586Y-14668984D02*
X11666586Y-14535650D01*
X11666586Y-14554698D02*
X11676110Y-14545174D01*
X11676110Y-14545174D02*
X11695158Y-14535650D01*
X11695158Y-14535650D02*
X11723729Y-14535650D01*
X11723729Y-14535650D02*
X11742777Y-14545174D01*
X11742777Y-14545174D02*
X11752301Y-14564222D01*
X11752301Y-14564222D02*
X11752301Y-14668984D01*
X11752301Y-14564222D02*
X11761824Y-14545174D01*
X11761824Y-14545174D02*
X11780872Y-14535650D01*
X11780872Y-14535650D02*
X11809443Y-14535650D01*
X11809443Y-14535650D02*
X11828491Y-14545174D01*
X11828491Y-14545174D02*
X11838015Y-14564222D01*
X11838015Y-14564222D02*
X11838015Y-14668984D01*
X12228491Y-14459460D02*
X12057063Y-14716603D01*
X12485634Y-14468984D02*
X12504682Y-14468984D01*
X12504682Y-14468984D02*
X12523729Y-14478508D01*
X12523729Y-14478508D02*
X12533253Y-14488031D01*
X12533253Y-14488031D02*
X12542777Y-14507079D01*
X12542777Y-14507079D02*
X12552301Y-14545174D01*
X12552301Y-14545174D02*
X12552301Y-14592793D01*
X12552301Y-14592793D02*
X12542777Y-14630888D01*
X12542777Y-14630888D02*
X12533253Y-14649936D01*
X12533253Y-14649936D02*
X12523729Y-14659460D01*
X12523729Y-14659460D02*
X12504682Y-14668984D01*
X12504682Y-14668984D02*
X12485634Y-14668984D01*
X12485634Y-14668984D02*
X12466586Y-14659460D01*
X12466586Y-14659460D02*
X12457063Y-14649936D01*
X12457063Y-14649936D02*
X12447539Y-14630888D01*
X12447539Y-14630888D02*
X12438015Y-14592793D01*
X12438015Y-14592793D02*
X12438015Y-14545174D01*
X12438015Y-14545174D02*
X12447539Y-14507079D01*
X12447539Y-14507079D02*
X12457063Y-14488031D01*
X12457063Y-14488031D02*
X12466586Y-14478508D01*
X12466586Y-14478508D02*
X12485634Y-14468984D01*
X12638015Y-14649936D02*
X12647539Y-14659460D01*
X12647539Y-14659460D02*
X12638015Y-14668984D01*
X12638015Y-14668984D02*
X12628491Y-14659460D01*
X12628491Y-14659460D02*
X12638015Y-14649936D01*
X12638015Y-14649936D02*
X12638015Y-14668984D01*
X12771348Y-14468984D02*
X12790396Y-14468984D01*
X12790396Y-14468984D02*
X12809444Y-14478508D01*
X12809444Y-14478508D02*
X12818967Y-14488031D01*
X12818967Y-14488031D02*
X12828491Y-14507079D01*
X12828491Y-14507079D02*
X12838015Y-14545174D01*
X12838015Y-14545174D02*
X12838015Y-14592793D01*
X12838015Y-14592793D02*
X12828491Y-14630888D01*
X12828491Y-14630888D02*
X12818967Y-14649936D01*
X12818967Y-14649936D02*
X12809444Y-14659460D01*
X12809444Y-14659460D02*
X12790396Y-14668984D01*
X12790396Y-14668984D02*
X12771348Y-14668984D01*
X12771348Y-14668984D02*
X12752301Y-14659460D01*
X12752301Y-14659460D02*
X12742777Y-14649936D01*
X12742777Y-14649936D02*
X12733253Y-14630888D01*
X12733253Y-14630888D02*
X12723729Y-14592793D01*
X12723729Y-14592793D02*
X12723729Y-14545174D01*
X12723729Y-14545174D02*
X12733253Y-14507079D01*
X12733253Y-14507079D02*
X12742777Y-14488031D01*
X12742777Y-14488031D02*
X12752301Y-14478508D01*
X12752301Y-14478508D02*
X12771348Y-14468984D01*
X12904682Y-14468984D02*
X13028491Y-14468984D01*
X13028491Y-14468984D02*
X12961825Y-14545174D01*
X12961825Y-14545174D02*
X12990396Y-14545174D01*
X12990396Y-14545174D02*
X13009444Y-14554698D01*
X13009444Y-14554698D02*
X13018967Y-14564222D01*
X13018967Y-14564222D02*
X13028491Y-14583269D01*
X13028491Y-14583269D02*
X13028491Y-14630888D01*
X13028491Y-14630888D02*
X13018967Y-14649936D01*
X13018967Y-14649936D02*
X13009444Y-14659460D01*
X13009444Y-14659460D02*
X12990396Y-14668984D01*
X12990396Y-14668984D02*
X12933253Y-14668984D01*
X12933253Y-14668984D02*
X12914206Y-14659460D01*
X12914206Y-14659460D02*
X12904682Y-14649936D01*
X13123729Y-14668984D02*
X13161825Y-14668984D01*
X13161825Y-14668984D02*
X13180872Y-14659460D01*
X13180872Y-14659460D02*
X13190396Y-14649936D01*
X13190396Y-14649936D02*
X13209444Y-14621365D01*
X13209444Y-14621365D02*
X13218967Y-14583269D01*
X13218967Y-14583269D02*
X13218967Y-14507079D01*
X13218967Y-14507079D02*
X13209444Y-14488031D01*
X13209444Y-14488031D02*
X13199920Y-14478508D01*
X13199920Y-14478508D02*
X13180872Y-14468984D01*
X13180872Y-14468984D02*
X13142777Y-14468984D01*
X13142777Y-14468984D02*
X13123729Y-14478508D01*
X13123729Y-14478508D02*
X13114206Y-14488031D01*
X13114206Y-14488031D02*
X13104682Y-14507079D01*
X13104682Y-14507079D02*
X13104682Y-14554698D01*
X13104682Y-14554698D02*
X13114206Y-14573746D01*
X13114206Y-14573746D02*
X13123729Y-14583269D01*
X13123729Y-14583269D02*
X13142777Y-14592793D01*
X13142777Y-14592793D02*
X13180872Y-14592793D01*
X13180872Y-14592793D02*
X13199920Y-14583269D01*
X13199920Y-14583269D02*
X13209444Y-14573746D01*
X13209444Y-14573746D02*
X13218967Y-14554698D01*
X13390396Y-14535650D02*
X13390396Y-14668984D01*
X13342777Y-14459460D02*
X13295158Y-14602317D01*
X13295158Y-14602317D02*
X13418967Y-14602317D01*
X13485634Y-14468984D02*
X13485634Y-14507079D01*
X13561825Y-14468984D02*
X13561825Y-14507079D01*
X13857063Y-14745174D02*
X13847539Y-14735650D01*
X13847539Y-14735650D02*
X13828491Y-14707079D01*
X13828491Y-14707079D02*
X13818968Y-14688031D01*
X13818968Y-14688031D02*
X13809444Y-14659460D01*
X13809444Y-14659460D02*
X13799920Y-14611841D01*
X13799920Y-14611841D02*
X13799920Y-14573746D01*
X13799920Y-14573746D02*
X13809444Y-14526127D01*
X13809444Y-14526127D02*
X13818968Y-14497555D01*
X13818968Y-14497555D02*
X13828491Y-14478508D01*
X13828491Y-14478508D02*
X13847539Y-14449936D01*
X13847539Y-14449936D02*
X13857063Y-14440412D01*
X14018968Y-14468984D02*
X13980872Y-14468984D01*
X13980872Y-14468984D02*
X13961825Y-14478508D01*
X13961825Y-14478508D02*
X13952301Y-14488031D01*
X13952301Y-14488031D02*
X13933253Y-14516603D01*
X13933253Y-14516603D02*
X13923729Y-14554698D01*
X13923729Y-14554698D02*
X13923729Y-14630888D01*
X13923729Y-14630888D02*
X13933253Y-14649936D01*
X13933253Y-14649936D02*
X13942777Y-14659460D01*
X13942777Y-14659460D02*
X13961825Y-14668984D01*
X13961825Y-14668984D02*
X13999920Y-14668984D01*
X13999920Y-14668984D02*
X14018968Y-14659460D01*
X14018968Y-14659460D02*
X14028491Y-14649936D01*
X14028491Y-14649936D02*
X14038015Y-14630888D01*
X14038015Y-14630888D02*
X14038015Y-14583269D01*
X14038015Y-14583269D02*
X14028491Y-14564222D01*
X14028491Y-14564222D02*
X14018968Y-14554698D01*
X14018968Y-14554698D02*
X13999920Y-14545174D01*
X13999920Y-14545174D02*
X13961825Y-14545174D01*
X13961825Y-14545174D02*
X13942777Y-14554698D01*
X13942777Y-14554698D02*
X13933253Y-14564222D01*
X13933253Y-14564222D02*
X13923729Y-14583269D01*
X14104682Y-14468984D02*
X14228491Y-14468984D01*
X14228491Y-14468984D02*
X14161825Y-14545174D01*
X14161825Y-14545174D02*
X14190396Y-14545174D01*
X14190396Y-14545174D02*
X14209444Y-14554698D01*
X14209444Y-14554698D02*
X14218968Y-14564222D01*
X14218968Y-14564222D02*
X14228491Y-14583269D01*
X14228491Y-14583269D02*
X14228491Y-14630888D01*
X14228491Y-14630888D02*
X14218968Y-14649936D01*
X14218968Y-14649936D02*
X14209444Y-14659460D01*
X14209444Y-14659460D02*
X14190396Y-14668984D01*
X14190396Y-14668984D02*
X14133253Y-14668984D01*
X14133253Y-14668984D02*
X14114206Y-14659460D01*
X14114206Y-14659460D02*
X14104682Y-14649936D01*
X14466587Y-14668984D02*
X14466587Y-14468984D01*
X14552301Y-14668984D02*
X14552301Y-14564222D01*
X14552301Y-14564222D02*
X14542777Y-14545174D01*
X14542777Y-14545174D02*
X14523730Y-14535650D01*
X14523730Y-14535650D02*
X14495158Y-14535650D01*
X14495158Y-14535650D02*
X14476110Y-14545174D01*
X14476110Y-14545174D02*
X14466587Y-14554698D01*
X14676110Y-14668984D02*
X14657063Y-14659460D01*
X14657063Y-14659460D02*
X14647539Y-14649936D01*
X14647539Y-14649936D02*
X14638015Y-14630888D01*
X14638015Y-14630888D02*
X14638015Y-14573746D01*
X14638015Y-14573746D02*
X14647539Y-14554698D01*
X14647539Y-14554698D02*
X14657063Y-14545174D01*
X14657063Y-14545174D02*
X14676110Y-14535650D01*
X14676110Y-14535650D02*
X14704682Y-14535650D01*
X14704682Y-14535650D02*
X14723730Y-14545174D01*
X14723730Y-14545174D02*
X14733253Y-14554698D01*
X14733253Y-14554698D02*
X14742777Y-14573746D01*
X14742777Y-14573746D02*
X14742777Y-14630888D01*
X14742777Y-14630888D02*
X14733253Y-14649936D01*
X14733253Y-14649936D02*
X14723730Y-14659460D01*
X14723730Y-14659460D02*
X14704682Y-14668984D01*
X14704682Y-14668984D02*
X14676110Y-14668984D01*
X14857063Y-14668984D02*
X14838015Y-14659460D01*
X14838015Y-14659460D02*
X14828491Y-14640412D01*
X14828491Y-14640412D02*
X14828491Y-14468984D01*
X15009444Y-14659460D02*
X14990396Y-14668984D01*
X14990396Y-14668984D02*
X14952301Y-14668984D01*
X14952301Y-14668984D02*
X14933253Y-14659460D01*
X14933253Y-14659460D02*
X14923730Y-14640412D01*
X14923730Y-14640412D02*
X14923730Y-14564222D01*
X14923730Y-14564222D02*
X14933253Y-14545174D01*
X14933253Y-14545174D02*
X14952301Y-14535650D01*
X14952301Y-14535650D02*
X14990396Y-14535650D01*
X14990396Y-14535650D02*
X15009444Y-14545174D01*
X15009444Y-14545174D02*
X15018968Y-14564222D01*
X15018968Y-14564222D02*
X15018968Y-14583269D01*
X15018968Y-14583269D02*
X14923730Y-14602317D01*
X15095158Y-14659460D02*
X15114206Y-14668984D01*
X15114206Y-14668984D02*
X15152301Y-14668984D01*
X15152301Y-14668984D02*
X15171349Y-14659460D01*
X15171349Y-14659460D02*
X15180872Y-14640412D01*
X15180872Y-14640412D02*
X15180872Y-14630888D01*
X15180872Y-14630888D02*
X15171349Y-14611841D01*
X15171349Y-14611841D02*
X15152301Y-14602317D01*
X15152301Y-14602317D02*
X15123730Y-14602317D01*
X15123730Y-14602317D02*
X15104682Y-14592793D01*
X15104682Y-14592793D02*
X15095158Y-14573746D01*
X15095158Y-14573746D02*
X15095158Y-14564222D01*
X15095158Y-14564222D02*
X15104682Y-14545174D01*
X15104682Y-14545174D02*
X15123730Y-14535650D01*
X15123730Y-14535650D02*
X15152301Y-14535650D01*
X15152301Y-14535650D02*
X15171349Y-14545174D01*
X15247539Y-14745174D02*
X15257063Y-14735650D01*
X15257063Y-14735650D02*
X15276111Y-14707079D01*
X15276111Y-14707079D02*
X15285634Y-14688031D01*
X15285634Y-14688031D02*
X15295158Y-14659460D01*
X15295158Y-14659460D02*
X15304682Y-14611841D01*
X15304682Y-14611841D02*
X15304682Y-14573746D01*
X15304682Y-14573746D02*
X15295158Y-14526127D01*
X15295158Y-14526127D02*
X15285634Y-14497555D01*
X15285634Y-14497555D02*
X15276111Y-14478508D01*
X15276111Y-14478508D02*
X15257063Y-14449936D01*
X15257063Y-14449936D02*
X15247539Y-14440412D01*
M02*
