M48
; DRILL file {KiCad 7.0.10} date Sat Jun  7 09:46:53 2025
; FORMAT={-:-/ absolute / metric / decimal}
; #@! TF.CreationDate,2025-06-07T09:46:53+01:00
; #@! TF.GenerationSoftware,Kicad,Pcbnew,7.0.10
; #@! TF.FileFunction,Plated,1,2,PTH
FMAT,2
METRIC
; #@! TA.AperFunction,Plated,PTH,ViaDrill
T1C0.400
; #@! TA.AperFunction,Plated,PTH,ComponentDrill
T2C0.700
; #@! TA.AperFunction,Plated,PTH,ComponentDrill
T3C0.800
; #@! TA.AperFunction,Plated,PTH,ComponentDrill
T4C1.000
%
G90
G05
T1
X88.265Y-117.356
X94.334Y-115.316
X98.577Y-116.332
X100.33Y-111.76
X113.03Y-130.175
T2
X75.605Y-93.345
X75.605Y-100.965
X78.105Y-93.345
X78.105Y-100.965
X80.645Y-93.32
X80.645Y-100.94
X83.225Y-93.345
X83.225Y-100.965
X85.765Y-93.345
X85.765Y-100.965
X88.32Y-93.345
X88.32Y-100.965
X90.805Y-93.345
X90.805Y-100.965
X93.385Y-93.345
X93.385Y-100.965
X95.885Y-93.345
X95.885Y-100.965
X98.425Y-93.345
X98.425Y-100.965
X100.965Y-93.345
X100.965Y-100.965
X105.41Y-96.52
X105.41Y-104.14
X105.41Y-113.03
X105.41Y-120.65
X107.95Y-96.52
X107.95Y-104.14
X107.95Y-113.03
X107.95Y-120.65
X110.49Y-96.52
X110.49Y-104.14
X110.49Y-113.03
X110.49Y-120.65
X113.03Y-96.52
X113.03Y-104.14
X113.03Y-113.03
X113.03Y-120.65
X115.57Y-96.52
X115.57Y-104.14
X115.57Y-113.03
X115.57Y-120.65
X118.11Y-96.52
X118.11Y-104.14
X118.11Y-113.03
X118.11Y-120.65
X124.46Y-99.06
X124.46Y-106.68
X124.46Y-111.76
X124.46Y-119.38
X124.46Y-123.23
X124.46Y-130.85
X124.46Y-135.93
X124.46Y-143.55
X127.0Y-99.06
X127.0Y-106.68
X127.0Y-111.76
X127.0Y-119.38
X127.0Y-123.23
X127.0Y-130.85
X127.0Y-135.93
X127.0Y-143.55
X140.97Y-99.06
X140.97Y-106.68
X140.97Y-111.76
X140.97Y-119.38
X141.605Y-123.23
X141.605Y-125.77
X141.605Y-128.31
X141.605Y-130.85
X141.605Y-135.93
X141.605Y-138.47
X141.605Y-141.01
X143.51Y-99.06
X143.51Y-106.68
X143.51Y-111.76
X143.51Y-119.38
X146.05Y-111.76
X146.05Y-119.38
X148.59Y-111.76
X148.59Y-119.38
X149.225Y-123.23
X149.225Y-125.77
X149.225Y-128.31
X149.225Y-130.85
X149.225Y-135.93
X149.225Y-138.47
X149.225Y-141.01
T3
X87.63Y-135.89
X87.63Y-143.51
X95.25Y-130.15
X95.25Y-132.65
X96.56Y-104.14
X99.695Y-132.715
X101.56Y-104.14
X107.315Y-132.715
X114.3Y-135.89
X114.3Y-143.51
X119.38Y-140.97
X119.38Y-143.47
X120.015Y-127.635
X120.015Y-130.135
X121.96Y-109.22
X121.96Y-133.39
X126.96Y-109.22
X126.96Y-133.39
X130.175Y-101.6
X130.175Y-104.14
X130.175Y-106.68
X130.175Y-109.22
X130.175Y-111.76
X130.175Y-114.3
X130.175Y-116.84
X130.175Y-125.77
X130.175Y-128.31
X130.175Y-130.85
X130.175Y-133.39
X130.175Y-135.93
X130.175Y-138.47
X130.175Y-141.01
X137.795Y-101.6
X137.795Y-104.14
X137.795Y-106.68
X137.795Y-109.22
X137.795Y-111.76
X137.795Y-114.3
X137.795Y-116.84
X137.795Y-125.77
X137.795Y-128.31
X137.795Y-130.85
X137.795Y-133.39
X137.795Y-135.93
X137.795Y-138.47
X137.795Y-141.01
X140.97Y-109.26
X141.645Y-133.39
X145.97Y-109.26
X146.645Y-133.39
T4
X70.485Y-117.575
X70.485Y-120.115
X70.485Y-125.095
X70.485Y-132.715
X73.025Y-125.095
X73.025Y-132.715
X75.565Y-125.095
X75.565Y-132.715
X75.605Y-104.14
X78.105Y-110.055
X78.105Y-125.095
X78.105Y-132.715
X78.145Y-104.14
X80.645Y-110.055
X80.645Y-125.095
X80.645Y-132.715
X80.685Y-104.14
X83.185Y-110.055
X83.185Y-125.095
X83.185Y-132.715
X83.225Y-104.14
X85.725Y-110.055
X85.725Y-125.095
X85.765Y-104.14
X86.995Y-122.655
X88.265Y-110.055
X88.265Y-125.095
X88.305Y-104.14
X89.535Y-122.655
X90.805Y-110.055
X90.805Y-125.095
X90.845Y-104.14
X93.345Y-110.055
X93.385Y-104.14
X94.615Y-139.065
X94.615Y-141.605
X95.885Y-125.095
X97.155Y-139.065
X97.155Y-141.605
X99.695Y-139.065
X99.695Y-141.605
X102.235Y-139.065
X102.235Y-141.605
X104.775Y-139.065
X104.775Y-141.605
X105.41Y-93.345
X105.41Y-107.315
X107.315Y-139.065
X107.315Y-141.605
X107.95Y-93.345
X107.95Y-107.315
X110.49Y-93.345
X110.49Y-107.315
X113.03Y-93.345
X113.03Y-107.315
X115.57Y-93.345
X115.57Y-107.315
X118.11Y-93.345
X118.11Y-107.315
X120.65Y-93.345
X149.225Y-106.04
X149.225Y-108.58
M30
