G04 #@! TF.GenerationSoftware,KiCad,Pcbnew,7.0.10*
G04 #@! TF.CreationDate,2025-10-07T16:07:45+01:00*
G04 #@! TF.ProjectId,Eudlidean_Rhythms_R,4575646c-6964-4656-916e-5f5268797468,rev?*
G04 #@! TF.SameCoordinates,Original*
G04 #@! TF.FileFunction,Soldermask,Bot*
G04 #@! TF.FilePolarity,Negative*
%FSLAX46Y46*%
G04 Gerber Fmt 4.6, Leading zero omitted, Abs format (unit mm)*
G04 Created by KiCad (PCBNEW 7.0.10) date 2025-10-07 16:07:45*
%MOMM*%
%LPD*%
G01*
G04 APERTURE LIST*
%ADD10C,1.400000*%
%ADD11O,1.400000X1.400000*%
%ADD12R,1.400000X1.400000*%
%ADD13R,1.700000X1.700000*%
%ADD14O,1.700000X1.700000*%
%ADD15R,1.600000X1.600000*%
%ADD16O,1.600000X1.600000*%
%ADD17C,1.600000*%
%ADD18O,1.500000X2.200000*%
%ADD19O,1.500000X2.000000*%
%ADD20O,2.200000X1.500000*%
%ADD21C,3.200000*%
G04 APERTURE END LIST*
D10*
X179070000Y-121920000D03*
D11*
X186690000Y-121920000D03*
D12*
X179070000Y-109220000D03*
D10*
X186690000Y-109220000D03*
D13*
X142875000Y-93305000D03*
D14*
X145415000Y-93305000D03*
X147955000Y-93305000D03*
X150495000Y-93305000D03*
X153035000Y-93305000D03*
X155575000Y-93305000D03*
D12*
X115570000Y-86955000D03*
D10*
X115570000Y-79335000D03*
X123230000Y-86955000D03*
D11*
X123230000Y-79335000D03*
D10*
X186690000Y-111760000D03*
D11*
X179070000Y-111760000D03*
D10*
X161925000Y-129540000D03*
D11*
X161925000Y-121920000D03*
D15*
X175260000Y-102830000D03*
D16*
X175260000Y-100290000D03*
X175260000Y-97750000D03*
X175260000Y-95210000D03*
X175260000Y-92670000D03*
X175260000Y-90130000D03*
X175260000Y-87590000D03*
X167640000Y-87590000D03*
X167640000Y-90130000D03*
X167640000Y-92670000D03*
X167640000Y-95210000D03*
X167640000Y-97750000D03*
X167640000Y-100290000D03*
X167640000Y-102830000D03*
D12*
X118110000Y-79309600D03*
D10*
X118110000Y-86929600D03*
X125785000Y-86955000D03*
D11*
X125785000Y-79335000D03*
D10*
X142875000Y-106640000D03*
D11*
X142875000Y-99020000D03*
D10*
X153035000Y-90130000D03*
D11*
X153035000Y-82510000D03*
D10*
X155575000Y-106640000D03*
D11*
X155575000Y-99020000D03*
D17*
X179110000Y-119380000D03*
X184110000Y-119380000D03*
D13*
X142875000Y-79335000D03*
D14*
X145415000Y-79335000D03*
X147955000Y-79335000D03*
X150495000Y-79335000D03*
X153035000Y-79335000D03*
X155575000Y-79335000D03*
X158115000Y-79335000D03*
D10*
X161925000Y-109220000D03*
D11*
X161925000Y-116840000D03*
D10*
X164465000Y-97750000D03*
D11*
X164465000Y-105370000D03*
D10*
X161925000Y-105370000D03*
D11*
X161925000Y-97750000D03*
D17*
X164425000Y-119380000D03*
X159425000Y-119380000D03*
D15*
X175260000Y-127000000D03*
D16*
X175260000Y-124460000D03*
X175260000Y-121920000D03*
X175260000Y-119380000D03*
X175260000Y-116840000D03*
X175260000Y-114300000D03*
X175260000Y-111760000D03*
X167640000Y-111760000D03*
X167640000Y-114300000D03*
X167640000Y-116840000D03*
X167640000Y-119380000D03*
X167640000Y-121920000D03*
X167640000Y-124460000D03*
X167640000Y-127000000D03*
D12*
X128270000Y-86955000D03*
D10*
X128270000Y-79335000D03*
D13*
X120650000Y-118705000D03*
D14*
X118110000Y-118705000D03*
X115570000Y-118705000D03*
X113030000Y-118705000D03*
X110490000Y-118705000D03*
X107950000Y-118705000D03*
D12*
X179070000Y-124460000D03*
D10*
X186690000Y-124460000D03*
X164465000Y-92670000D03*
D11*
X164465000Y-85050000D03*
D10*
X186055000Y-97750000D03*
D11*
X186055000Y-105370000D03*
D15*
X132715000Y-118640113D03*
D17*
X132715000Y-116140113D03*
D10*
X147955000Y-90130000D03*
D11*
X147955000Y-82510000D03*
D12*
X133350000Y-86955000D03*
D10*
X133350000Y-79335000D03*
X120690000Y-79335000D03*
D11*
X120690000Y-86955000D03*
D10*
X113070000Y-86955000D03*
D11*
X113070000Y-79335000D03*
D13*
X186690000Y-92030000D03*
D14*
X186690000Y-94570000D03*
D10*
X145415000Y-106640000D03*
D11*
X145415000Y-99020000D03*
D13*
X113070000Y-90130000D03*
D14*
X115610000Y-90130000D03*
X118150000Y-90130000D03*
X120690000Y-90130000D03*
X123230000Y-90130000D03*
X125770000Y-90130000D03*
X128310000Y-90130000D03*
X130850000Y-90130000D03*
X133390000Y-90130000D03*
D10*
X186690000Y-116840000D03*
D11*
X179070000Y-116840000D03*
D17*
X138430000Y-81875000D03*
X138430000Y-86875000D03*
D10*
X155575000Y-90130000D03*
D11*
X155575000Y-82510000D03*
D13*
X132080000Y-127595000D03*
D14*
X132080000Y-125055000D03*
X134620000Y-127595000D03*
X134620000Y-125055000D03*
X137160000Y-127595000D03*
X137160000Y-125055000D03*
X139700000Y-127595000D03*
X139700000Y-125055000D03*
X142240000Y-127595000D03*
X142240000Y-125055000D03*
X144780000Y-127595000D03*
X144780000Y-125055000D03*
D10*
X135890000Y-79335000D03*
D11*
X135890000Y-86955000D03*
D10*
X183515000Y-97750000D03*
D11*
X183515000Y-105370000D03*
D17*
X151765000Y-121880000D03*
D16*
X151765000Y-129500000D03*
D17*
X164425000Y-95210000D03*
X159425000Y-95210000D03*
D10*
X180975000Y-92670000D03*
D11*
X180975000Y-85050000D03*
D15*
X157480000Y-113625000D03*
D17*
X157480000Y-116125000D03*
D10*
X180975000Y-105370000D03*
D11*
X180975000Y-97750000D03*
D10*
X150495000Y-106640000D03*
D11*
X150495000Y-99020000D03*
D15*
X156845000Y-126960000D03*
D17*
X156845000Y-129460000D03*
D12*
X179070000Y-127000000D03*
D10*
X186690000Y-127000000D03*
X161899600Y-85024600D03*
D11*
X161899600Y-92644600D03*
D10*
X164465000Y-116840000D03*
D11*
X164465000Y-109220000D03*
D17*
X178435000Y-95250000D03*
X183435000Y-95250000D03*
D18*
X130860800Y-96037400D03*
X128320800Y-96037400D03*
X125780800Y-96037400D03*
X123240800Y-96037400D03*
X120700800Y-96037400D03*
X118160800Y-96037400D03*
X115620800Y-96037400D03*
X108000800Y-111077400D03*
X110540800Y-111077400D03*
X113080800Y-111077400D03*
X115620800Y-111077400D03*
X118160800Y-111077400D03*
X120700800Y-111077400D03*
X123240800Y-111077400D03*
X125780800Y-111077400D03*
D19*
X128320800Y-111077400D03*
D18*
X133400800Y-111077400D03*
D14*
X127050800Y-108637400D03*
D18*
X124510800Y-108637400D03*
D20*
X108000800Y-106097400D03*
X108000800Y-103557400D03*
D10*
X178435000Y-92670000D03*
D11*
X178435000Y-85050000D03*
D10*
X178435000Y-97750000D03*
D11*
X178435000Y-105370000D03*
D10*
X186690000Y-114300000D03*
D11*
X179070000Y-114300000D03*
D17*
X137160000Y-118705000D03*
D16*
X144780000Y-118705000D03*
D21*
X186055000Y-79335000D03*
D12*
X130810000Y-79335000D03*
D10*
X130810000Y-86955000D03*
X145415000Y-90130000D03*
D11*
X145415000Y-82510000D03*
D10*
X142875000Y-90130000D03*
D11*
X142875000Y-82510000D03*
D10*
X150495000Y-90130000D03*
D11*
X150495000Y-82510000D03*
D10*
X164465000Y-121920000D03*
D11*
X164465000Y-129540000D03*
D17*
X125095000Y-121880000D03*
D16*
X125095000Y-129500000D03*
D10*
X147955000Y-106640000D03*
D11*
X147955000Y-99020000D03*
D10*
X153035000Y-106640000D03*
D11*
X153035000Y-99020000D03*
D21*
X107315000Y-79335000D03*
M02*
